<svg width="80" height="80" viewBox="0 0 80 80" fill="none" xmlns="http://www.w3.org/2000/svg">
<mask id="mask0_44_1501" style="mask-type:alpha" maskUnits="userSpaceOnUse" x="0" y="0" width="80" height="80">
<circle cx="40" cy="40" r="40" fill="#D9D9D9" fill-opacity="0.9"/>
</mask>
<g mask="url(#mask0_44_1501)">
<mask id="mask1_44_1501" style="mask-type:luminance" maskUnits="userSpaceOnUse" x="32" y="-7" width="49" height="48">
<path d="M32.7869 7.58496L65.4412 -6.99453L80.0253 25.6702L47.371 40.2497L32.7869 7.58496Z" fill="white"/>
</mask>
<g mask="url(#mask1_44_1501)">
<path d="M72.7471 9.34361C72.8663 9.61071 72.9788 9.88085 73.0853 10.1536C73.1909 10.4268 73.2903 10.7018 73.3836 10.9794C73.4761 11.2575 73.5611 11.5368 73.6401 11.8188C73.7191 12.1009 73.7909 12.3851 73.856 12.6702C73.9211 12.9554 73.9787 13.2419 74.0299 13.5302C74.0802 13.8189 74.1247 14.1081 74.1604 14.3982C74.1974 14.6888 74.2272 14.9795 74.2495 15.2716C74.2718 15.5636 74.2869 15.8557 74.295 16.148C74.3027 16.4415 74.3037 16.7338 74.2976 17.0263C74.2906 17.3191 74.2771 17.6108 74.2564 17.9027C74.2362 18.1953 74.208 18.4864 74.1733 18.7764C74.1381 19.0675 74.0959 19.3567 74.0462 19.6452C73.9977 19.9341 73.9414 20.2215 73.8781 20.5068C73.8148 20.7922 73.744 21.0768 73.6671 21.3591C73.5901 21.6413 73.5062 21.9216 73.4149 22.1991C73.3239 22.4774 73.226 22.7537 73.1215 23.0269C73.0171 23.3 72.9056 23.5711 72.7876 23.8391C72.6704 24.1067 72.5459 24.3714 72.4149 24.6329C72.2838 24.8945 72.1466 25.1537 72.0033 25.4084C71.86 25.6632 71.7102 25.9147 71.5535 26.1622C71.398 26.4102 71.2365 26.6537 71.0684 26.894C70.9008 27.1331 70.7275 27.3686 70.5473 27.6C70.368 27.8311 70.1834 28.0573 69.9932 28.28C69.8026 28.5018 69.6068 28.7188 69.4053 28.9322C69.2042 29.1444 68.998 29.3518 68.7865 29.5543C68.5751 29.7569 68.3589 29.9534 68.1375 30.1451C67.9173 30.3372 67.6912 30.5229 67.4611 30.7042C67.2306 30.8846 66.9966 31.0595 66.7578 31.2283C66.5191 31.3972 66.276 31.5608 66.029 31.718C65.782 31.8752 65.5323 32.0265 65.2779 32.1717C65.0232 32.316 64.7657 32.4544 64.5048 32.5873C64.2435 32.7192 63.9795 32.8453 63.7125 32.9645C63.4454 33.0837 63.1754 33.1961 62.9027 33.3026C62.6296 33.4082 62.3547 33.5075 62.0771 33.6008C61.8 33.6929 61.5199 33.7781 61.238 33.8571C60.956 33.936 60.6728 34.0074 60.3877 34.0725C60.1026 34.1375 59.8153 34.1954 59.5271 34.2465C59.2385 34.2968 58.9502 34.3409 58.6592 34.3769C58.3687 34.4138 58.0781 34.4436 57.7861 34.4658C57.4942 34.488 57.2021 34.5031 56.9099 34.5112C56.6173 34.5183 56.325 34.5193 56.0326 34.5131C55.7399 34.5061 55.4474 34.4928 55.1556 34.4721C54.8638 34.4514 54.5728 34.4232 54.2821 34.3888C53.9918 34.3531 53.7018 34.3112 53.4134 34.2614C53.1253 34.2125 52.8381 34.1561 52.5519 34.0931C52.2666 34.0297 51.982 33.9588 51.7006 33.8814C51.4184 33.8044 51.1382 33.7204 50.8599 33.6294C50.5816 33.5383 50.3062 33.4399 50.0331 33.3354C49.7591 33.2312 49.4888 33.1193 49.2209 33.0012C48.9534 32.8839 48.6887 32.7593 48.4263 32.6286C48.1648 32.4974 47.9065 32.3597 47.6517 32.2164C47.3962 32.0734 47.1446 31.9235 46.8972 31.7667C46.6492 31.6111 46.4057 31.4495 46.1663 31.2809C45.9263 31.1136 45.6909 30.9402 45.4594 30.7599C45.2284 30.5805 45.0021 30.3959 44.7803 30.2051C44.5576 30.0148 44.3406 29.8189 44.1281 29.6169C43.9159 29.4158 43.7077 29.2098 43.506 28.9979C43.3034 28.7864 43.106 28.5705 42.9143 28.349C42.723 28.1283 42.5365 27.9025 42.356 27.6719C42.1747 27.4417 42.0007 27.2072 41.831 26.9687C41.6621 26.7299 41.4985 26.4867 41.3412 26.2396C41.184 25.9925 41.0336 25.7424 40.8883 25.4879C40.7431 25.2335 40.6047 24.9759 40.4718 24.7149C40.3398 24.4535 40.2137 24.1894 40.0945 23.9223C39.9752 23.6552 39.8628 23.3851 39.7563 23.1123C39.6506 22.8391 39.5513 22.5641 39.4588 22.2861C39.3666 22.0089 39.2805 21.7291 39.2015 21.4471C39.1225 21.1651 39.051 20.8817 38.9859 20.5966C38.9217 20.311 38.8629 20.0241 38.8125 19.7354C38.7613 19.4471 38.7181 19.1583 38.6811 18.8677C38.6442 18.5771 38.6152 18.286 38.5929 17.994C38.5698 17.7023 38.5555 17.4098 38.5474 17.1176C38.5393 16.8253 38.5383 16.533 38.5452 16.2401C38.5513 15.9477 38.5645 15.6551 38.5851 15.3633C38.6058 15.0715 38.6339 14.7804 38.6691 14.4892C38.7039 14.1993 38.7457 13.9092 38.7954 13.6207C38.8451 13.3323 38.9005 13.0453 38.9643 12.7587C39.0276 12.4734 39.0976 12.1891 39.1749 11.9077C39.2527 11.6251 39.3366 11.3448 39.4275 11.0665C39.5185 10.7882 39.6159 10.5131 39.7212 10.2396C39.8253 9.96557 39.9363 9.69565 40.0543 9.4277C40.1723 9.15975 40.2969 8.895 40.4275 8.63261C40.5578 8.37145 40.6953 8.11312 40.8386 7.85837C40.9824 7.60239 41.1325 7.3517 41.288 7.10374C41.4435 6.85579 41.6059 6.61189 41.7735 6.3728C41.9416 6.13248 42.1149 5.89698 42.2942 5.66592C42.4736 5.43485 42.659 5.20822 42.8496 4.98641C43.0398 4.76374 43.2356 4.54675 43.4367 4.33456C43.6377 4.12238 43.8436 3.91416 44.0554 3.71246C44.2668 3.50991 44.4826 3.31255 44.7041 3.12086C44.9255 2.92917 45.1504 2.74306 45.3809 2.56261C45.611 2.38131 45.8462 2.2069 46.0846 2.03722C46.3233 1.86839 46.5656 1.70514 46.8126 1.54793C47.0596 1.39072 47.3105 1.23994 47.564 1.09511C47.8184 0.949905 48.0758 0.811503 48.3368 0.678675C48.5981 0.546697 48.8621 0.420674 49.1291 0.301457C49.3961 0.182239 49.6662 0.0698264 49.9389 -0.0366316C50.212 -0.142239 50.4869 -0.241512 50.7648 -0.33398C51.0427 -0.426448 51.3216 -0.512202 51.6036 -0.591151C51.8855 -0.6701 52.1696 -0.741865 52.4547 -0.806915C52.7402 -0.871115 53.0262 -0.929451 53.3148 -0.979752C53.6031 -1.0309 53.8926 -1.07449 54.1823 -1.11098C54.4728 -1.14786 54.7638 -1.17679 55.0558 -1.199C55.3474 -1.22207 55.6399 -1.23634 55.932 -1.24437C56.2251 -1.25278 56.5174 -1.25371 56.8101 -1.2467C57.1025 -1.24054 57.3942 -1.22691 57.686 -1.20618C57.9786 -1.18584 58.2696 -1.15764 58.5599 -1.12197C58.8506 -1.08753 59.1398 -1.04523 59.4282 -0.995464C59.7174 -0.946076 60.0043 -0.890536 60.29 -0.826293C60.5754 -0.7629 60.8596 -0.692885 61.1418 -0.615868C61.4244 -0.538 61.7046 -0.453981 61.982 -0.362579C62.2603 -0.271557 62.5362 -0.174384 62.8097 -0.0689779C63.0828 0.0355775 63.3536 0.146284 63.6215 0.264373C63.8894 0.382462 64.1541 0.507082 64.4156 0.638233C64.6768 0.768534 64.9359 0.905837 65.1907 1.0492C65.4458 1.19341 65.6973 1.34331 65.9444 1.49926C66.1923 1.65484 66.4362 1.81732 66.6761 1.98464C66.9156 2.15319 67.1511 2.32656 67.3821 2.506C67.6132 2.68544 67.8398 2.87093 68.0625 3.06126C68.2843 3.25197 68.5013 3.44788 68.7143 3.64863C68.9265 3.84975 69.1339 4.05609 69.3364 4.26764C69.539 4.47918 69.7355 4.69546 69.9272 4.91696C70.1198 5.13807 70.3051 5.36345 70.4864 5.59366C70.6668 5.82426 70.8421 6.05921 71.011 6.29804C71.1798 6.53688 71.3431 6.77923 71.5003 7.02631C71.6576 7.2734 71.8092 7.52399 71.9541 7.77762C72.0985 8.03249 72.2369 8.29 72.3698 8.55103C72.5018 8.81244 72.6278 9.0765 72.7471 9.34361Z" fill="#1AA179"/>
</g>
<path d="M49.9808 10.097L49.1476 10.1279C48.6425 10.1431 48.1399 10.1639 47.6338 10.2013C47.127 10.239 46.624 10.2851 46.1199 10.3476C45.6154 10.4111 45.1131 10.487 44.6155 10.5809L44.6009 10.5875C44.5622 10.5947 44.5267 10.6089 44.4936 10.6287C44.4609 10.6492 44.4317 10.6739 44.4077 10.7047C44.3835 10.7348 44.3649 10.7683 44.3527 10.8047C44.3401 10.8422 44.3343 10.8799 44.3357 10.9187C44.3371 10.9575 44.3444 10.9945 44.3589 11.0307C44.3727 11.0673 44.3929 11.0993 44.4184 11.1282C44.4448 11.1575 44.4746 11.181 44.5088 11.1993C44.5429 11.2176 44.5794 11.2298 44.6178 11.2353L44.6328 11.237C45.1385 11.3037 45.646 11.3578 46.1533 11.3962C46.4363 11.4165 46.7181 11.4322 46.9998 11.4439C47.0613 11.4466 47.1184 11.4656 47.17 11.5004C47.2215 11.5352 47.2596 11.581 47.2849 11.6376C47.3104 11.6949 47.3192 11.7539 47.3107 11.8155C47.3021 11.8771 47.2782 11.9323 47.2391 11.9799C47.0584 12.198 46.8823 12.4191 46.7098 12.6427C46.3992 13.0446 46.0977 13.4558 45.8127 13.8814L45.7987 13.9027C45.7547 13.9693 45.7378 14.0422 45.7474 14.1217C45.7566 14.2006 45.79 14.2678 45.8486 14.3221C45.9065 14.3767 45.975 14.4064 46.055 14.4109C46.1342 14.4158 46.2057 14.3939 46.2698 14.346L46.2921 14.3361C46.6995 14.0251 47.0918 13.7008 47.4754 13.3686C47.8598 13.0361 48.2297 12.6899 48.5946 12.3401C48.7776 12.1645 48.954 11.9835 49.134 11.8068L49.6592 11.2606L50.2314 10.6657C50.2828 10.6176 50.3155 10.5594 50.3301 10.4909C50.344 10.4226 50.337 10.3562 50.3083 10.2919C50.2806 10.228 50.2358 10.1784 50.1761 10.1423C50.1157 10.1064 50.0503 10.0912 49.9808 10.097Z" fill="#0D503C"/>
<path d="M55.8395 7.48147L56.4115 6.88247C56.76 6.51652 57.111 6.15616 57.4767 5.80433C57.8431 5.45218 58.2132 5.10841 58.5962 4.77481C58.98 4.44089 59.3721 4.11831 59.774 3.80984L59.7886 3.80329C59.8201 3.78001 59.8541 3.76232 59.8912 3.75162C59.928 3.74022 59.9662 3.73573 60.0048 3.73777C60.0434 3.7398 60.0811 3.74899 60.1164 3.76424C60.1523 3.77918 60.1843 3.80011 60.2122 3.82702C60.2402 3.85394 60.2631 3.88475 60.2801 3.91906C60.2982 3.95376 60.3089 3.99088 60.3134 4.0291C60.3172 4.06763 60.3151 4.10625 60.306 4.14387C60.2968 4.18149 60.2812 4.21609 60.2596 4.24836L60.2512 4.26135C59.9633 4.68237 59.6647 5.09641 59.3547 5.49967C59.1812 5.72293 59.0052 5.94401 58.8251 6.16184C58.786 6.20945 58.7621 6.26458 58.7536 6.3262C58.745 6.38783 58.7538 6.44679 58.779 6.50339C58.8043 6.55998 58.8424 6.60584 58.8939 6.64065C58.9455 6.67545 59.0026 6.69439 59.0641 6.69709C59.3472 6.70815 59.6293 6.72464 59.9113 6.74626C60.4179 6.78322 60.9253 6.83323 61.4324 6.90515L61.4573 6.90829C61.5365 6.92068 61.6021 6.95678 61.6546 7.01629C61.7075 7.0765 61.7349 7.14552 61.7369 7.22508C61.7386 7.30565 61.7149 7.37654 61.6646 7.43839C61.6153 7.50062 61.5516 7.53996 61.4732 7.5557L61.4509 7.56568C60.9474 7.66142 60.4441 7.73696 59.9406 7.80084C59.4364 7.86504 58.9318 7.90934 58.4274 7.94681C58.1745 7.96586 57.922 7.97636 57.6703 7.99237L56.9129 8.01874L56.088 8.04763C56.019 8.05247 55.9543 8.03696 55.8956 8.00116C55.8358 7.96497 55.7921 7.91578 55.7644 7.85188C55.737 7.78868 55.7296 7.72327 55.7435 7.65503C55.7568 7.58711 55.7887 7.52925 55.8395 7.48147Z" fill="#0D503C"/>
<path d="M61.6221 14.2987L51.1901 18.9563C50.7794 19.1397 50.297 18.9562 50.1129 18.5439C49.9288 18.1316 50.1139 17.6493 50.5246 17.4659L60.9566 12.8082C61.3687 12.6242 61.8501 12.8091 62.0341 13.2213C62.2182 13.6336 62.0342 14.1147 61.6221 14.2987Z" fill="#0D503C"/>
<mask id="mask2_44_1501" style="mask-type:luminance" maskUnits="userSpaceOnUse" x="22" y="27" width="44" height="45">
<path d="M22.2951 27.1035H65.8687V71.3086H22.2951V27.1035Z" fill="white"/>
</mask>
<g mask="url(#mask2_44_1501)">
<path d="M65.8811 49.2196C65.8811 49.581 65.872 49.9425 65.855 50.304C65.8368 50.6654 65.8107 51.0258 65.7767 51.3861C65.7415 51.7464 65.6973 52.1044 65.6451 52.4624C65.5929 52.8204 65.5316 53.1773 65.4624 53.5319C65.3931 53.8864 65.3148 54.2387 65.2286 54.5898C65.1412 54.9409 65.0471 55.2897 64.9427 55.6351C64.8394 55.9816 64.7282 56.3246 64.6079 56.6654C64.4876 57.0061 64.3594 57.3434 64.2232 57.6772C64.0859 58.0122 63.9418 58.3426 63.7898 58.6695C63.6366 58.9965 63.4766 59.3188 63.3086 59.6377C63.1407 59.9577 62.9648 60.272 62.7821 60.5816C62.5983 60.8925 62.4077 61.1975 62.2091 61.498C62.0117 61.7996 61.8063 62.0954 61.5941 62.3855C61.3819 62.6756 61.1617 62.9611 60.9359 63.2409C60.7101 63.5206 60.4775 63.7946 60.2381 64.0616C59.9986 64.3299 59.7524 64.5923 59.5005 64.8479C59.2486 65.1035 58.9899 65.3533 58.7255 65.5962C58.4622 65.8391 58.1922 66.0751 57.9164 66.3041C57.6407 66.5332 57.3593 66.7565 57.0733 66.9718C56.7874 67.1871 56.4957 67.3955 56.1984 67.5958C55.9023 67.7972 55.6016 67.9906 55.2952 68.1771C54.9899 68.3624 54.6802 68.5409 54.3647 68.7112C54.0504 68.8816 53.7327 69.0439 53.4104 69.1993C53.0881 69.3536 52.7625 69.4998 52.4323 69.6391C52.1032 69.7772 51.7707 69.9073 51.4348 70.0293C51.099 70.1514 50.7608 70.2642 50.4193 70.3689C50.0788 70.4748 49.735 70.5704 49.3889 70.659C49.0428 70.7465 48.6956 70.826 48.3461 70.8962C47.9966 70.9664 47.6448 71.0286 47.2919 71.0815C46.939 71.1345 46.5861 71.1794 46.231 71.215C45.8758 71.2496 45.5206 71.2761 45.1643 71.2945C44.808 71.3117 44.4517 71.321 44.0954 71.321C43.7391 71.321 43.3828 71.3117 43.0265 71.2945C42.6702 71.2761 42.315 71.2496 41.9599 71.215C41.6058 71.1794 41.2518 71.1345 40.8989 71.0815C40.546 71.0286 40.1953 70.9664 39.8459 70.8962C39.4964 70.826 39.148 70.7465 38.8019 70.659C38.4558 70.5704 38.1131 70.4748 37.7716 70.3689C37.43 70.2642 37.0919 70.1514 36.756 70.0293C36.4201 69.9073 36.0876 69.7772 35.7586 69.6391C35.4295 69.4998 35.1038 69.3536 34.7816 69.1993C34.4593 69.0439 34.1404 68.8816 33.8261 68.7112C33.5118 68.5409 33.202 68.3624 32.8956 68.1771C32.5904 67.9906 32.2886 67.7972 31.9924 67.5958C31.6962 67.3955 31.4046 67.1871 31.1175 66.9718C30.8316 66.7565 30.5501 66.5332 30.2755 66.3041C29.9998 66.0751 29.7297 65.8391 29.4653 65.5962C29.201 65.3533 28.9434 65.1035 28.6915 64.8479C28.4384 64.5923 28.1933 64.3299 27.9539 64.0616C27.7145 63.7946 27.4818 63.5206 27.2549 63.2409C27.0291 62.9611 26.8101 62.6756 26.5979 62.3855C26.3846 62.0954 26.1792 61.7996 25.9817 61.498C25.7832 61.1975 25.5925 60.8925 25.4098 60.5816C25.226 60.272 25.0501 59.9577 24.8822 59.6377C24.7142 59.3188 24.5542 58.9965 24.4022 58.6695C24.249 58.3426 24.1049 58.0122 23.9687 57.6772C23.8326 57.3434 23.7032 57.0061 23.584 56.6654C23.4638 56.3246 23.3514 55.9816 23.2482 55.6351C23.1449 55.2897 23.0496 54.9409 22.9633 54.5898C22.876 54.2387 22.7988 53.8864 22.7285 53.5319C22.6592 53.1773 22.598 52.8204 22.5458 52.4624C22.4936 52.1044 22.4505 51.7464 22.4153 51.3861C22.3801 51.0258 22.354 50.6654 22.3358 50.304C22.3188 49.9425 22.3097 49.581 22.3097 49.2196C22.3097 48.8581 22.3188 48.4966 22.3358 48.1352C22.354 47.7737 22.3801 47.4134 22.4153 47.053C22.4505 46.6939 22.4936 46.3347 22.5458 45.9767C22.598 45.6187 22.6592 45.263 22.7285 44.9084C22.7988 44.5539 22.876 44.2004 22.9633 43.8493C23.0496 43.4982 23.1449 43.1506 23.2482 42.8041C23.3514 42.4576 23.4638 42.1145 23.584 41.7738C23.7032 41.433 23.8326 41.0957 23.9687 40.7619C24.1049 40.428 24.249 40.0977 24.4022 39.7707C24.5542 39.4438 24.7142 39.1203 24.8822 38.8014C25.0501 38.4826 25.226 38.1683 25.4098 37.8575C25.5925 37.5478 25.7832 37.2416 25.9817 36.9411C26.1803 36.6407 26.3846 36.3448 26.5979 36.0536C26.8101 35.7635 27.0291 35.478 27.2549 35.1994C27.4818 34.9197 27.7145 34.6457 27.9539 34.3775C28.1933 34.1092 28.4384 33.8479 28.6915 33.5924C28.9434 33.3357 29.201 33.087 29.4653 32.8441C29.7297 32.6012 29.9998 32.3652 30.2755 32.135C30.5501 31.9059 30.8316 31.6837 31.1175 31.4685C31.4046 31.252 31.6962 31.0448 31.9924 30.8434C32.2886 30.6419 32.5904 30.4485 32.8956 30.2632C33.202 30.0767 33.5118 29.8983 33.8261 29.7279C34.1404 29.5575 34.4593 29.3952 34.7816 29.2409C35.1038 29.0855 35.4295 28.9393 35.7586 28.8012C36.0876 28.663 36.4201 28.5318 36.756 28.4109C37.0919 28.2889 37.43 28.1749 37.7716 28.0702C38.1131 27.9654 38.4558 27.8687 38.8019 27.7812C39.148 27.6926 39.4964 27.6143 39.8459 27.5429C40.1953 27.4727 40.546 27.4106 40.8989 27.3576C41.2518 27.3047 41.6058 27.2609 41.9599 27.2252C42.315 27.1895 42.6702 27.1631 43.0265 27.1446C43.3828 27.1274 43.7391 27.1182 44.0954 27.1182C44.4517 27.1182 44.808 27.1274 45.1643 27.1446C45.5206 27.1631 45.8758 27.1895 46.231 27.2252C46.5861 27.2609 46.939 27.3047 47.2919 27.3576C47.6448 27.4106 47.9966 27.4727 48.3461 27.5429C48.6956 27.6143 49.0428 27.6926 49.3889 27.7812C49.735 27.8687 50.0788 27.9654 50.4193 28.0702C50.7608 28.1749 51.099 28.2889 51.4348 28.4109C51.7707 28.5318 52.1032 28.663 52.4323 28.8012C52.7625 28.9393 53.0881 29.0855 53.4104 29.2409C53.7327 29.3952 54.0504 29.5575 54.3647 29.7279C54.6802 29.8983 54.9899 30.0767 55.2952 30.2632C55.6016 30.4485 55.9023 30.6419 56.1984 30.8434C56.4957 31.0448 56.7874 31.252 57.0733 31.4685C57.3593 31.6837 57.6407 31.9059 57.9164 32.135C58.1922 32.3652 58.4622 32.6012 58.7255 32.8441C58.9899 33.087 59.2486 33.3357 59.5005 33.5924C59.7524 33.8479 59.9986 34.1092 60.2381 34.3775C60.4775 34.6457 60.7101 34.9197 60.9359 35.1994C61.1617 35.478 61.3819 35.7635 61.5941 36.0536C61.8063 36.3448 62.0117 36.6407 62.2091 36.9411C62.4077 37.2416 62.5983 37.5478 62.7821 37.8575C62.9648 38.1683 63.1407 38.4826 63.3086 38.8014C63.4766 39.1203 63.6366 39.4438 63.7898 39.7707C63.9418 40.0977 64.0859 40.428 64.2232 40.7619C64.3594 41.0957 64.4876 41.433 64.6079 41.7738C64.7282 42.1145 64.8394 42.4576 64.9427 42.8041C65.0471 43.1506 65.1412 43.4982 65.2286 43.8493C65.3148 44.2004 65.3931 44.5539 65.4624 44.9084C65.5316 45.263 65.5929 45.6187 65.6451 45.9767C65.6973 46.3347 65.7415 46.6939 65.7767 47.053C65.8107 47.4134 65.8368 47.7737 65.855 48.1352C65.872 48.4966 65.8811 48.8581 65.8811 49.2196Z" fill="#0AA2C0"/>
</g>
<path d="M36.717 35.7515C36.5456 35.7515 36.3768 35.7679 36.2096 35.8016C36.0417 35.8354 35.8788 35.8856 35.721 35.9513C35.5633 36.0171 35.4132 36.0984 35.2708 36.1944C35.1292 36.2913 34.9979 36.4003 34.8768 36.5223C34.7557 36.6451 34.6482 36.7784 34.5527 36.922C34.4581 37.0664 34.3779 37.2178 34.3123 37.3779C34.2466 37.5379 34.1971 37.7032 34.1639 37.8736C34.1306 38.0432 34.1136 38.2145 34.1136 38.3883C34.1136 38.5614 34.1298 38.7327 34.163 38.9031C34.1963 39.0726 34.2457 39.2379 34.3114 39.3979C34.3762 39.558 34.4564 39.7102 34.551 39.8547C34.6457 39.9983 34.754 40.1315 34.8742 40.2544C34.9953 40.3772 35.1266 40.4862 35.2691 40.5823C35.4106 40.6792 35.5607 40.7605 35.7185 40.8262C35.8762 40.8929 36.0391 40.943 36.2062 40.9768C36.3742 41.0105 36.5431 41.0278 36.7136 41.0278C36.885 41.0278 37.0539 41.0105 37.221 40.9768C37.389 40.943 37.5519 40.8929 37.7096 40.8262C37.8674 40.7605 38.0166 40.6792 38.159 40.5823C38.3006 40.4862 38.4319 40.3772 38.553 40.2544C38.6741 40.1315 38.7816 39.9983 38.8762 39.8547C38.9709 39.7102 39.051 39.558 39.1167 39.3979C39.1824 39.2379 39.231 39.0726 39.2642 38.9031C39.2975 38.7327 39.3145 38.5614 39.3145 38.3883C39.3137 38.2153 39.2975 38.044 39.2642 37.8736C39.231 37.704 39.1815 37.5397 39.1158 37.3796C39.051 37.2196 38.9709 37.0682 38.8762 36.9237C38.7816 36.7801 38.6733 36.6469 38.553 36.5249C38.4328 36.402 38.3015 36.293 38.1599 36.197C38.0175 36.101 37.8683 36.0197 37.7105 35.953C37.5527 35.8864 37.3907 35.8362 37.2236 35.8025C37.0564 35.7688 36.8876 35.7515 36.717 35.7515Z" fill="#055160"/>
<path d="M51.457 35.7515C51.2864 35.7506 51.1167 35.7671 50.9487 35.8008C50.7816 35.8345 50.6187 35.8839 50.4609 35.9496C50.3023 36.0154 50.1522 36.0967 50.0098 36.1927C49.8674 36.2887 49.7361 36.3977 49.615 36.5197C49.4939 36.6426 49.3856 36.7749 49.2901 36.9194C49.1955 37.063 49.1144 37.2153 49.0488 37.3753C48.9831 37.5354 48.9337 37.6997 48.9004 37.8702C48.8663 38.0397 48.8492 38.2119 48.8492 38.3849C48.8492 38.5579 48.8654 38.7301 48.8987 38.9005C48.9311 39.0701 48.9806 39.2353 49.0454 39.3954C49.111 39.5554 49.1912 39.7077 49.2858 39.8521C49.3805 39.9966 49.4879 40.1299 49.609 40.2527C49.7293 40.3755 49.8606 40.4854 50.003 40.5814C50.1446 40.6783 50.2947 40.7597 50.4524 40.8263C50.6102 40.892 50.7731 40.9422 50.9402 40.9768C51.1082 41.0105 51.277 41.0278 51.4476 41.0278C51.619 41.0278 51.7878 41.0105 51.9558 40.9768C52.123 40.9431 52.2858 40.8937 52.4436 40.8271C52.6014 40.7605 52.7515 40.6792 52.8939 40.5832C53.0363 40.4871 53.1676 40.3773 53.2878 40.2553C53.4089 40.1324 53.5172 39.9992 53.6119 39.8547C53.7065 39.7103 53.7867 39.5589 53.8524 39.398C53.9172 39.2379 53.9666 39.0727 53.9999 38.9031C54.0331 38.7327 54.0502 38.5614 54.0502 38.3884C54.0493 38.2153 54.0331 38.0441 53.9999 37.8745C53.9666 37.7049 53.9172 37.5406 53.8524 37.3805C53.7867 37.2213 53.7074 37.0691 53.6127 36.9255C53.5181 36.7819 53.4106 36.6486 53.2904 36.5266C53.1702 36.4038 53.0388 36.2948 52.8973 36.1988C52.7557 36.1019 52.6065 36.0205 52.4496 35.9539C52.2918 35.8882 52.1298 35.838 51.9627 35.8034C51.7964 35.7697 51.6275 35.7524 51.457 35.7515Z" fill="#055160"/>
<path d="M48.1542 43.5598H48.1423C48.0792 43.5468 48.0152 43.5451 47.9512 43.5546C47.8873 43.565 47.8276 43.5858 47.7705 43.6178C47.7142 43.6498 47.6647 43.6904 47.6229 43.7398C47.5803 43.7899 47.5487 43.8453 47.5257 43.9067C47.3253 44.4431 46.8844 45.2658 46.0641 45.2658C45.045 45.2658 44.6118 44.0823 44.5948 44.0339C44.5564 43.9197 44.4882 43.828 44.3901 43.7588C44.2921 43.6896 44.1829 43.6567 44.0635 43.6602C43.9441 43.6636 43.8375 43.7026 43.7437 43.7761C43.6491 43.8505 43.586 43.9457 43.5536 44.0624C43.499 44.2363 43.4197 44.3972 43.3157 44.5452C43.2108 44.694 43.0863 44.822 42.9421 44.931C42.798 45.0392 42.6411 45.1222 42.4706 45.1802C42.3 45.2381 42.1252 45.2684 41.9461 45.2702C41.2861 45.2702 40.8546 44.437 40.6431 43.8938C40.6192 43.8315 40.5851 43.7761 40.5408 43.7268C40.4973 43.6775 40.4461 43.6377 40.3873 43.6074C40.3293 43.5771 40.267 43.5581 40.2022 43.5503C40.1374 43.5425 40.0726 43.5468 40.0095 43.5624L39.9618 43.5745L39.9976 43.5659C39.9217 43.5849 39.8526 43.6195 39.7921 43.6688C39.7307 43.7181 39.6821 43.7778 39.6462 43.8488C39.6113 43.9188 39.5917 43.9941 39.5883 44.0737C39.5848 44.1524 39.5976 44.2294 39.6266 44.303C39.9362 45.0893 40.6414 46.3792 41.9461 46.3792C42.1516 46.3818 42.3546 46.3611 42.5558 46.3161C42.7571 46.272 42.9498 46.2045 43.1357 46.1145C43.3216 46.0245 43.4947 45.9147 43.6559 45.784C43.8162 45.6543 43.9603 45.5072 44.0874 45.3428C44.2008 45.502 44.3304 45.6447 44.4763 45.7728C44.6229 45.9008 44.7815 46.0098 44.9538 46.0998C45.1252 46.1898 45.3043 46.2581 45.4919 46.3057C45.6795 46.3524 45.8697 46.3775 46.0624 46.3792C46.2057 46.368 46.3472 46.3464 46.4871 46.3135C46.6269 46.2806 46.7642 46.2374 46.8972 46.1828C47.0303 46.1283 47.1582 46.0643 47.2818 45.9899C47.4055 45.9155 47.5223 45.8316 47.6332 45.739C47.744 45.6465 47.8472 45.5453 47.9419 45.4363C48.0374 45.3272 48.1235 45.2122 48.202 45.0893C48.2796 44.9665 48.3469 44.8393 48.4049 44.7061C48.4638 44.5729 48.5115 44.4353 48.5482 44.2952C48.5627 44.258 48.5729 44.2199 48.5789 44.1801C48.5848 44.1412 48.5866 44.1014 48.584 44.0616C48.5814 44.0218 48.5746 43.9829 48.5644 43.9448C48.5533 43.9059 48.5379 43.8695 48.5192 43.8341C48.5004 43.7995 48.4783 43.7666 48.4527 43.7372C48.4271 43.7069 48.3981 43.6801 48.3665 43.6558C48.335 43.6325 48.3017 43.6126 48.2659 43.5962C48.2292 43.5797 48.1926 43.5676 48.1542 43.5598Z" fill="#055160"/>
<mask id="mask3_44_1501" style="mask-type:luminance" maskUnits="userSpaceOnUse" x="14" y="-7" width="39" height="42">
<path d="M14.4262 -6.55762H52.0219V34.5353H14.4262V-6.55762Z" fill="white"/>
</mask>
<g mask="url(#mask3_44_1501)">
<path d="M52.0326 14.0014C52.0326 14.3374 52.0247 14.6735 52.01 15.0095C51.9944 15.3455 51.9719 15.6805 51.9425 16.0154C51.9121 16.3504 51.8739 16.6832 51.8289 17.016C51.7839 17.3488 51.731 17.6805 51.6713 18.0101C51.6116 18.3397 51.544 18.6672 51.4696 18.9936C51.3942 19.32 51.3129 19.6442 51.2229 19.9652C51.1338 20.2874 51.0378 20.6063 50.9341 20.923C50.8303 21.2398 50.7196 21.5533 50.6022 21.8637C50.4837 22.1751 50.3594 22.4822 50.2282 22.7861C50.096 23.09 49.9579 23.3897 49.813 23.6861C49.6681 23.9836 49.5164 24.2757 49.3588 24.5636C49.2002 24.8525 49.0357 25.1361 48.8643 25.4154C48.694 25.6958 48.5168 25.9708 48.3337 26.2405C48.1506 26.5101 47.9607 26.7755 47.7658 27.0356C47.571 27.2956 47.3703 27.5503 47.1637 27.7986C46.9571 28.0479 46.7447 28.2919 46.5273 28.5295C46.31 28.767 46.0868 28.9993 45.8586 29.2251C45.6315 29.4509 45.3985 29.6702 45.1606 29.8832C44.9227 30.0961 44.6799 30.3037 44.4331 30.5039C44.1864 30.704 43.9348 30.8977 43.6783 31.0839C43.4228 31.2711 43.1633 31.4509 42.899 31.6243C42.6356 31.7966 42.3683 31.9624 42.0961 32.1208C41.8249 32.2792 41.5508 32.4301 41.2728 32.5746C40.9947 32.718 40.7137 32.8539 40.4288 32.9833C40.1449 33.1118 39.858 33.2327 39.5682 33.3461C39.2784 33.4596 38.9867 33.5644 38.692 33.6618C38.3983 33.7603 38.1016 33.8491 37.803 33.9315C37.5044 34.0128 37.2048 34.0866 36.9032 34.1519C36.6017 34.2172 36.2982 34.275 35.9937 34.3242C35.6892 34.3734 35.3847 34.4152 35.0783 34.4483C34.7719 34.4805 34.4654 34.5051 34.158 34.5222C33.8506 34.5382 33.5431 34.5468 33.2357 34.5468C32.9283 34.5468 32.6209 34.5382 32.3134 34.5222C32.006 34.5051 31.6996 34.4805 31.3931 34.4483C31.0877 34.4152 30.7822 34.3734 30.4777 34.3242C30.1732 34.275 29.8707 34.2172 29.5692 34.1519C29.2676 34.0866 28.967 34.0128 28.6684 33.9315C28.3698 33.8491 28.0741 33.7603 27.7795 33.6618C27.4848 33.5644 27.193 33.4596 26.9032 33.3461C26.6134 33.2327 26.3265 33.1118 26.0426 32.9833C25.7587 32.8539 25.4777 32.718 25.1997 32.5746C24.9216 32.4301 24.6465 32.2792 24.3753 32.1208C24.1041 31.9624 23.8368 31.7966 23.5725 31.6243C23.3091 31.4509 23.0487 31.2711 22.7931 31.0839C22.5376 30.8977 22.286 30.704 22.0383 30.5039C21.7916 30.3037 21.5488 30.0961 21.3118 29.8832C21.0739 29.6702 20.8409 29.4509 20.6128 29.2251C20.3847 28.9993 20.1624 28.767 19.9451 28.5295C19.7267 28.2919 19.5153 28.0479 19.3087 27.7986C19.1021 27.5503 18.9014 27.2956 18.7056 27.0356C18.5108 26.7755 18.3218 26.5101 18.1387 26.2405C17.9547 25.9708 17.7775 25.6958 17.6071 25.4154C17.4358 25.1361 17.2713 24.8525 17.1137 24.5636C16.955 24.2757 16.8033 23.9836 16.6584 23.6861C16.5135 23.3897 16.3754 23.09 16.2443 22.7861C16.1121 22.4822 15.9877 22.1751 15.8703 21.8637C15.7528 21.5533 15.6412 21.2398 15.5384 20.923C15.4346 20.6063 15.3377 20.2874 15.2486 19.9652C15.1595 19.6442 15.0772 19.32 15.0028 18.9936C14.9274 18.6672 14.8609 18.3397 14.8002 18.0101C14.7404 17.6805 14.6876 17.3488 14.6425 17.016C14.5975 16.6832 14.5603 16.3504 14.5299 16.0154C14.4996 15.6805 14.4771 15.3455 14.4614 15.0095C14.4467 14.6735 14.4389 14.3374 14.4389 14.0014C14.4389 13.6654 14.4467 13.3294 14.4614 12.9934C14.4771 12.6573 14.4996 12.3224 14.5299 11.9874C14.5603 11.6536 14.5975 11.3197 14.6425 10.9869C14.6876 10.6541 14.7404 10.3234 14.8002 9.9938C14.8609 9.6642 14.9274 9.33567 15.0028 9.00928C15.0772 8.68289 15.1595 8.35972 15.2486 8.03761C15.3377 7.7155 15.4346 7.3966 15.5384 7.07984C15.6412 6.76309 15.7528 6.44954 15.8703 6.1392C15.9877 5.82887 16.1121 5.52174 16.2443 5.21782C16.3754 4.91391 16.5135 4.6132 16.6584 4.31678C16.8033 4.02035 16.955 3.72821 17.1137 3.43927C17.2713 3.15141 17.4358 2.86675 17.6071 2.58745C17.7784 2.30815 17.9547 2.03312 18.1387 1.76238C18.3218 1.49271 18.5108 1.22732 18.7056 0.968348C18.9014 0.708307 19.1021 0.453617 19.3087 0.204277C19.5153 -0.0450625 19.7267 -0.287981 19.9451 -0.52555C20.1624 -0.764188 20.3847 -0.995336 20.6128 -1.22113C20.8409 -1.44693 21.0739 -1.66631 21.3118 -1.88033C21.5488 -2.09329 21.7916 -2.29982 22.0383 -2.49993C22.286 -2.70112 22.5376 -2.89374 22.7931 -3.08101C23.0487 -3.26829 23.3091 -3.44807 23.5725 -3.62036C23.8368 -3.79372 24.1041 -3.95959 24.3753 -4.11797C24.6465 -4.27635 24.9216 -4.42723 25.1997 -4.57063C25.4777 -4.7151 25.7587 -4.851 26.0426 -4.97942C26.3265 -5.10783 26.6134 -5.22983 26.9032 -5.34219C27.193 -5.45563 27.4848 -5.56157 27.7795 -5.65895C28.0741 -5.75633 28.3698 -5.84622 28.6684 -5.92755C28.967 -6.00995 29.2676 -6.08272 29.5692 -6.14907C29.8707 -6.21435 30.1732 -6.27213 30.4777 -6.32136C30.7822 -6.37058 31.0877 -6.41125 31.3931 -6.44442C31.6996 -6.4776 32.006 -6.50221 32.3134 -6.51933C32.6209 -6.53538 32.9283 -6.54395 33.2357 -6.54395C33.5431 -6.54395 33.8506 -6.53538 34.158 -6.51933C34.4654 -6.50221 34.7719 -6.4776 35.0783 -6.44442C35.3847 -6.41125 35.6892 -6.37058 35.9937 -6.32136C36.2982 -6.27213 36.6017 -6.21435 36.9032 -6.14907C37.2048 -6.08272 37.5044 -6.00995 37.803 -5.92755C38.1016 -5.84622 38.3983 -5.75633 38.692 -5.65895C38.9867 -5.56157 39.2784 -5.45563 39.5682 -5.34219C39.858 -5.22983 40.1449 -5.10783 40.4288 -4.97942C40.7137 -4.851 40.9947 -4.7151 41.2728 -4.57063C41.5508 -4.42723 41.8249 -4.27635 42.0961 -4.11797C42.3683 -3.95959 42.6356 -3.79372 42.899 -3.62036C43.1633 -3.44807 43.4228 -3.26829 43.6783 -3.08101C43.9348 -2.89374 44.1864 -2.70112 44.4331 -2.49993C44.6799 -2.29982 44.9227 -2.09329 45.1606 -1.88033C45.3985 -1.66631 45.6315 -1.44693 45.8586 -1.22113C46.0868 -0.995336 46.31 -0.764188 46.5273 -0.52555C46.7447 -0.287981 46.9571 -0.0450625 47.1637 0.204277C47.3703 0.453617 47.571 0.708307 47.7658 0.968348C47.9607 1.22732 48.1506 1.49271 48.3337 1.76238C48.5168 2.03312 48.694 2.30815 48.8643 2.58745C49.0357 2.86675 49.2002 3.15141 49.3588 3.43927C49.5164 3.72821 49.6681 4.02035 49.813 4.31678C49.9579 4.6132 50.096 4.91391 50.2282 5.21782C50.3594 5.52174 50.4837 5.82887 50.6022 6.1392C50.7196 6.44954 50.8303 6.76309 50.9341 7.07984C51.0378 7.3966 51.1338 7.7155 51.2229 8.03761C51.3129 8.35972 51.3942 8.68289 51.4696 9.00928C51.544 9.33567 51.6116 9.6642 51.6713 9.9938C51.731 10.3234 51.7839 10.6541 51.8289 10.9869C51.8739 11.3197 51.9121 11.6536 51.9425 11.9874C51.9719 12.3224 51.9944 12.6573 52.01 12.9934C52.0247 13.3294 52.0326 13.6654 52.0326 14.0014Z" fill="#FFC107"/>
<path d="M29.8893 1.75716C29.8893 1.92713 29.8785 2.0957 29.8569 2.2622C29.8353 2.42939 29.8029 2.59102 29.7604 2.7485C29.7179 2.90528 29.6659 3.05443 29.6043 3.19595C29.5427 3.33748 29.4723 3.46859 29.3936 3.5886C29.3149 3.70862 29.2298 3.81615 29.1372 3.91049C29.0451 4.00484 28.9474 4.08462 28.8446 4.14983C28.7417 4.21504 28.6364 4.26429 28.5272 4.29759C28.4181 4.3302 28.3083 4.34685 28.1972 4.34685C28.0861 4.34685 27.9757 4.3302 27.8665 4.29759C27.758 4.26429 27.652 4.21504 27.5492 4.14983C27.4464 4.08462 27.3492 4.00484 27.2566 3.91049C27.1646 3.81615 27.0789 3.70862 27.0002 3.5886C26.9215 3.46859 26.8516 3.33748 26.7895 3.19595C26.7279 3.05443 26.6758 2.90528 26.6333 2.7485C26.5908 2.59102 26.5584 2.42939 26.5368 2.2622C26.5153 2.0957 26.5045 1.92713 26.5045 1.75716C26.5045 1.5872 26.5153 1.41863 26.5368 1.25213C26.5584 1.08494 26.5908 0.923304 26.6333 0.765828C26.6758 0.609046 26.7279 0.459894 26.7895 0.318374C26.8516 0.176853 26.9215 0.0457392 27.0002 -0.0742756C27.0789 -0.19429 27.1646 -0.301818 27.2566 -0.396165C27.3492 -0.490512 27.4464 -0.570291 27.5492 -0.635501C27.652 -0.700711 27.758 -0.749966 27.8665 -0.783265C27.9757 -0.81587 28.0861 -0.83252 28.1972 -0.83252C28.3083 -0.83252 28.4181 -0.81587 28.5272 -0.783265C28.6364 -0.749966 28.7417 -0.700711 28.8446 -0.635501C28.9474 -0.570291 29.0451 -0.490512 29.1372 -0.396165C29.2298 -0.301818 29.3149 -0.19429 29.3936 -0.0742756C29.4723 0.0457392 29.5427 0.176853 29.6043 0.318374C29.6659 0.459894 29.7179 0.609046 29.7604 0.765828C29.8029 0.923304 29.8353 1.08494 29.8569 1.25213C29.8785 1.41863 29.8893 1.5872 29.8893 1.75716Z" fill="#997404"/>
</g>
<path d="M39.9436 1.75662C39.9436 1.92645 39.9321 2.0939 39.9096 2.25978C39.8865 2.42566 39.8533 2.5868 39.8085 2.7432C39.7644 2.89959 39.7095 3.04809 39.6452 3.18948C39.5801 3.33009 39.5071 3.46042 39.4247 3.57969C39.3424 3.69976 39.2527 3.80639 39.1559 3.90039C39.0598 3.99439 38.9572 4.07416 38.8502 4.13894C38.7425 4.20371 38.632 4.25268 38.5178 4.28586C38.4036 4.31824 38.2887 4.33483 38.1724 4.33483C38.056 4.33483 37.9404 4.31824 37.8262 4.28586C37.7127 4.25268 37.6014 4.20371 37.4945 4.13894C37.3868 4.07416 37.2849 3.99439 37.1881 3.90039C37.0912 3.80639 37.0016 3.69976 36.9192 3.57969C36.8376 3.46042 36.7639 3.33009 36.6996 3.18948C36.6345 3.04809 36.5803 2.89959 36.5355 2.7432C36.4914 2.5868 36.4575 2.42566 36.4351 2.25978C36.4119 2.0939 36.4011 1.92645 36.4011 1.75662C36.4011 1.58758 36.4119 1.42013 36.4351 1.25425C36.4575 1.08758 36.4914 0.926442 36.5355 0.770043C36.5803 0.613644 36.6345 0.465145 36.6996 0.324544C36.7639 0.183943 36.8376 0.0536105 36.9192 -0.0664532C37.0016 -0.185727 37.0912 -0.292362 37.1881 -0.38636C37.2849 -0.480357 37.3868 -0.560136 37.4945 -0.624907C37.6014 -0.689678 37.7127 -0.738652 37.8262 -0.771827C37.9404 -0.805003 38.056 -0.820801 38.1724 -0.820801C38.2887 -0.820801 38.4036 -0.805003 38.5178 -0.771827C38.632 -0.738652 38.7425 -0.689678 38.8502 -0.624907C38.9572 -0.560136 39.0598 -0.480357 39.1559 -0.38636C39.2527 -0.292362 39.3424 -0.185727 39.4247 -0.0664532C39.5071 0.0536105 39.5801 0.183943 39.6452 0.324544C39.7095 0.465145 39.7644 0.613644 39.8085 0.770043C39.8533 0.926442 39.8865 1.08758 39.9096 1.25425C39.9321 1.42013 39.9436 1.58758 39.9436 1.75662Z" fill="#997404"/>
<path d="M27.1524 10.3354C28.3527 12.5337 30.6248 13.9879 33.1874 13.9887C35.75 13.9879 38.022 12.5337 39.2224 10.3354" stroke="#997404" stroke-width="2" stroke-linecap="round"/>
<mask id="mask4_44_1501" style="mask-type:luminance" maskUnits="userSpaceOnUse" x="-11" y="8" width="45" height="47">
<path d="M-10.929 8.74316H33.9076V54.8428H-10.929V8.74316Z" fill="white"/>
</mask>
<g mask="url(#mask4_44_1501)">
<path d="M33.9205 31.8074C33.9205 32.1844 33.9111 32.5613 33.8936 32.9383C33.8749 33.3152 33.8481 33.691 33.8131 34.0668C33.7769 34.4425 33.7313 34.8159 33.6776 35.1892C33.6239 35.5626 33.5609 35.9347 33.4896 36.3045C33.4184 36.6743 33.3378 37.0416 33.2491 37.4078C33.1592 37.7739 33.0623 38.1377 32.9549 38.4978C32.8486 38.8592 32.7342 39.2169 32.6104 39.5723C32.4866 39.9276 32.3547 40.2794 32.2146 40.6275C32.0733 40.9769 31.925 41.3214 31.7686 41.6624C31.6109 42.0033 31.4463 42.3395 31.2735 42.672C31.1007 43.0058 30.9197 43.3335 30.7317 43.6564C30.5426 43.9806 30.3464 44.2987 30.1421 44.612C29.9389 44.9266 29.7276 45.2351 29.5092 45.5376C29.2909 45.8402 29.0644 46.1379 28.832 46.4296C28.5996 46.7213 28.3603 47.0071 28.1139 47.2856C27.8675 47.5653 27.6142 47.839 27.355 48.1055C27.0957 48.372 26.8295 48.6325 26.5575 48.8859C26.2866 49.1392 26.0087 49.3853 25.725 49.6242C25.4412 49.8631 25.1517 50.096 24.8574 50.3205C24.5632 50.545 24.2631 50.7623 23.9572 50.9711C23.6524 51.1812 23.343 51.3829 23.0278 51.5774C22.7137 51.7707 22.3949 51.9568 22.0703 52.1344C21.7469 52.3121 21.4199 52.4814 21.0883 52.6435C20.7567 52.8043 20.4216 52.9568 20.0819 53.102C19.7432 53.2461 19.4011 53.3818 19.0555 53.509C18.7099 53.6363 18.3619 53.7539 18.0105 53.8632C17.6602 53.9736 17.3064 54.0733 16.9503 54.1657C16.5942 54.2569 16.2369 54.3398 15.8773 54.413C15.5176 54.4862 15.1557 54.5511 14.7925 54.6063C14.4294 54.6615 14.0663 54.7083 13.7008 54.7455C13.3353 54.7816 12.9699 54.8092 12.6032 54.8284C12.2366 54.8464 11.87 54.856 11.5033 54.856C11.1367 54.856 10.7701 54.8464 10.4035 54.8284C10.0368 54.8092 9.67135 54.7816 9.30589 54.7455C8.94159 54.7083 8.57729 54.6615 8.21416 54.6063C7.85103 54.5511 7.49024 54.4862 7.13061 54.413C6.77099 54.3398 6.41253 54.2569 6.0564 54.1657C5.70028 54.0733 5.34766 53.9736 4.9962 53.8632C4.64475 53.7539 4.2968 53.6363 3.95118 53.509C3.60557 53.3818 3.26346 53.2461 2.92485 53.102C2.58624 52.9568 2.25113 52.8043 1.91953 52.6435C1.58792 52.4814 1.25982 52.3121 0.93639 52.1344C0.612959 51.9568 0.294199 51.7707 -0.0210586 51.5774C-0.335149 51.3829 -0.645735 51.1812 -0.950484 50.9711C-1.25523 50.7623 -1.55531 50.545 -1.85072 50.3205C-2.14496 50.096 -2.43453 49.8631 -2.71709 49.6242C-3.00082 49.3853 -3.27872 49.1392 -3.55077 48.8859C-3.82283 48.6325 -4.08788 48.372 -4.34709 48.1055C-4.60747 47.839 -4.85968 47.5653 -5.10604 47.2856C-5.35241 47.0071 -5.59177 46.7213 -5.8253 46.4296C-6.05765 46.1379 -6.283 45.8402 -6.50135 45.5376C-6.72086 45.2351 -6.9322 44.9266 -7.13537 44.612C-7.3397 44.2987 -7.53586 43.9806 -7.72385 43.6564C-7.913 43.3335 -8.09398 43.0058 -8.26679 42.672C-8.4396 42.3395 -8.60423 42.0033 -8.76069 41.6624C-8.91832 41.3214 -9.06661 40.9769 -9.20672 40.6275C-9.34684 40.2794 -9.47995 39.9276 -9.60255 39.5723C-9.72631 39.2169 -9.84191 38.8592 -9.94816 38.4978C-10.0544 38.1377 -10.1525 37.7739 -10.2412 37.4078C-10.3311 37.0416 -10.4105 36.6743 -10.4829 36.3045C-10.5542 35.9347 -10.6172 35.5626 -10.6709 35.1892C-10.7246 34.8159 -10.769 34.4425 -10.8052 34.0668C-10.8414 33.691 -10.8682 33.3152 -10.8869 32.9383C-10.9044 32.5613 -10.9138 32.1844 -10.9138 31.8074C-10.9138 31.4304 -10.9044 31.0535 -10.8869 30.6765C-10.8682 30.2995 -10.8414 29.9238 -10.8052 29.548C-10.769 29.1735 -10.7246 28.7989 -10.6709 28.4256C-10.6172 28.0522 -10.5542 27.6812 -10.4829 27.3115C-10.4105 26.9417 -10.3311 26.5732 -10.2412 26.207C-10.1525 25.8409 -10.0544 25.4783 -9.94816 25.1169C-9.84191 24.7556 -9.72631 24.3978 -9.60255 24.0425C-9.47995 23.6871 -9.34684 23.3354 -9.20672 22.9872C-9.06661 22.6391 -8.91832 22.2945 -8.76069 21.9536C-8.60423 21.6127 -8.4396 21.2753 -8.26679 20.9428C-8.09398 20.6102 -7.913 20.2825 -7.72385 19.9584C-7.53586 19.6354 -7.3397 19.3161 -7.13537 19.0027C-6.93103 18.6894 -6.72086 18.3809 -6.50135 18.0772C-6.283 17.7746 -6.05765 17.4769 -5.8253 17.1864C-5.59177 16.8946 -5.35241 16.6089 -5.10604 16.3292C-4.85968 16.0495 -4.60747 15.777 -4.34709 15.5105C-4.08788 15.2427 -3.82283 14.9834 -3.55077 14.7301C-3.27872 14.4768 -3.00082 14.2307 -2.71709 13.9906C-2.43453 13.7517 -2.14496 13.52 -1.85072 13.2955C-1.55531 13.0698 -1.25523 12.8537 -0.950484 12.6436C-0.645735 12.4336 -0.335149 12.2319 -0.0210586 12.0386C0.294199 11.8441 0.612959 11.658 0.93639 11.4803C1.25982 11.3027 1.58792 11.1334 1.91953 10.9725C2.25113 10.8105 2.58624 10.658 2.92485 10.5139C3.26346 10.3699 3.60557 10.233 3.95118 10.107C4.2968 9.97971 4.64475 9.86086 4.9962 9.75161C5.34766 9.64236 5.70028 9.54152 6.0564 9.45028C6.41253 9.35784 6.77099 9.27621 7.13061 9.20178C7.49024 9.12855 7.85103 9.06372 8.21416 9.0085C8.57729 8.95327 8.94159 8.90765 9.30589 8.87044C9.67135 8.83322 10.0368 8.80561 10.4035 8.7864C10.7701 8.76839 11.1367 8.75879 11.5033 8.75879C11.87 8.75879 12.2366 8.76839 12.6032 8.7864C12.9699 8.80561 13.3353 8.83322 13.7008 8.87044C14.0663 8.90765 14.4294 8.95327 14.7925 9.0085C15.1557 9.06372 15.5176 9.12855 15.8773 9.20178C16.2369 9.27621 16.5942 9.35784 16.9503 9.45028C17.3064 9.54152 17.6602 9.64236 18.0105 9.75161C18.3619 9.86086 18.7099 9.97971 19.0555 10.107C19.4011 10.233 19.7432 10.3699 20.0819 10.5139C20.4216 10.658 20.7567 10.8105 21.0883 10.9725C21.4199 11.1334 21.7469 11.3027 22.0703 11.4803C22.3949 11.658 22.7137 11.8441 23.0278 12.0386C23.343 12.2319 23.6524 12.4336 23.9572 12.6436C24.2631 12.8537 24.5632 13.0698 24.8574 13.2955C25.1517 13.52 25.4412 13.7517 25.725 13.9906C26.0087 14.2307 26.2866 14.4768 26.5575 14.7301C26.8295 14.9834 27.0957 15.2427 27.355 15.5105C27.6142 15.777 27.8675 16.0495 28.1139 16.3292C28.3603 16.6089 28.5996 16.8946 28.832 17.1864C29.0644 17.4769 29.2909 17.7746 29.5092 18.0772C29.7276 18.3809 29.9389 18.6894 30.1421 19.0027C30.3464 19.3161 30.5426 19.6354 30.7317 19.9584C30.9197 20.2825 31.1007 20.6102 31.2735 20.9428C31.4463 21.2753 31.6109 21.6127 31.7686 21.9536C31.925 22.2945 32.0733 22.6391 32.2146 22.9872C32.3547 23.3354 32.4866 23.6871 32.6104 24.0425C32.7342 24.3978 32.8486 24.7556 32.9549 25.1169C33.0623 25.4783 33.1592 25.8409 33.2491 26.207C33.3378 26.5732 33.4184 26.9417 33.4896 27.3115C33.5609 27.6812 33.6239 28.0522 33.6776 28.4256C33.7313 28.7989 33.7769 29.1735 33.8131 29.548C33.8481 29.9238 33.8749 30.2995 33.8936 30.6765C33.9111 31.0535 33.9205 31.4304 33.9205 31.8074Z" fill="#0A58CA"/>
</g>
<path d="M1.50583 23.6636C1.50583 25.4251 3.17239 27.2709 5.22849 27.2709C7.2837 27.2709 8.95027 25.4251 8.95027 23.6636C8.9626 23.3628 8.81983 23.206 8.73611 23.3002C8.68499 23.3582 8.63123 23.4153 8.57483 23.4706C8.5193 23.525 8.46114 23.5793 8.40033 23.6319C8.33952 23.6835 8.27606 23.7343 8.21173 23.7841C8.14651 23.833 8.07865 23.8802 8.00991 23.9264C7.94028 23.9726 7.86978 24.0161 7.79663 24.0587C7.72348 24.1013 7.64857 24.142 7.57189 24.1801C7.49522 24.2191 7.41766 24.2562 7.33746 24.2906C7.25815 24.3251 7.17707 24.3586 7.09422 24.3894C7.01138 24.4202 6.92765 24.4483 6.84305 24.4755C6.75756 24.5018 6.67119 24.5262 6.58394 24.5489C6.49757 24.5706 6.40944 24.5915 6.32043 24.6096C6.23142 24.6268 6.14152 24.6431 6.05163 24.6567C5.96086 24.6703 5.87008 24.6812 5.77931 24.6903C5.68765 24.6993 5.59599 24.7066 5.50434 24.7111C5.41268 24.7156 5.32014 24.7183 5.22849 24.7183C5.13595 24.7183 5.04429 24.7156 4.95264 24.7111C4.8601 24.7066 4.76844 24.6993 4.67767 24.6903C4.58601 24.6812 4.49523 24.6703 4.40534 24.6567C4.31457 24.6431 4.22555 24.6268 4.13654 24.6096C4.04753 24.5915 3.9594 24.5706 3.87215 24.5489C3.7849 24.5262 3.69853 24.5018 3.61392 24.4755C3.52844 24.4483 3.44471 24.4202 3.36187 24.3894C3.27991 24.3586 3.19882 24.3251 3.11863 24.2906C3.03931 24.2562 2.96087 24.2191 2.8842 24.1801C2.80752 24.142 2.73349 24.1013 2.66034 24.0587C2.58719 24.0161 2.51581 23.9726 2.44618 23.9264C2.37744 23.8802 2.31046 23.833 2.24525 23.7841C2.18003 23.7343 2.11746 23.6835 2.05664 23.6319C1.99583 23.5793 1.93767 23.525 1.88126 23.4706C1.82486 23.4153 1.77198 23.3582 1.72087 23.3002C1.63626 23.206 1.50847 23.3628 1.50583 23.6636Z" fill="#052C65"/>
<path d="M14.0275 23.6636C14.0275 25.4251 15.6941 27.2709 17.7502 27.2709C19.8054 27.2709 21.4719 25.4251 21.4719 23.6636C21.4843 23.3628 21.3415 23.206 21.2578 23.3002C21.2067 23.3582 21.1529 23.4153 21.0965 23.4706C21.041 23.525 20.9828 23.5793 20.922 23.6319C20.8612 23.6835 20.7977 23.7343 20.7325 23.7841C20.6682 23.833 20.6003 23.8802 20.5316 23.9264C20.462 23.9726 20.3915 24.0161 20.3183 24.0587C20.2452 24.1013 20.1703 24.142 20.0936 24.1801C20.0169 24.2191 19.9393 24.2562 19.8591 24.2906C19.7798 24.3251 19.6979 24.3586 19.6159 24.3894C19.5331 24.4202 19.4493 24.4483 19.3639 24.4755C19.2792 24.5018 19.1929 24.5262 19.1056 24.5489C19.0184 24.5706 18.9302 24.5915 18.8421 24.6096C18.7531 24.6268 18.6632 24.6431 18.5733 24.6567C18.4825 24.6703 18.3918 24.6812 18.3001 24.6903C18.2093 24.6993 18.1177 24.7066 18.026 24.7111C17.9335 24.7156 17.8418 24.7183 17.7502 24.7183C17.6576 24.7183 17.566 24.7156 17.4743 24.7111C17.3818 24.7066 17.2901 24.6993 17.1993 24.6903C17.1077 24.6812 17.0169 24.6703 16.927 24.6567C16.8362 24.6431 16.7472 24.6268 16.6582 24.6096C16.5692 24.5915 16.4811 24.5706 16.3938 24.5489C16.3066 24.5262 16.2202 24.5018 16.1356 24.4755C16.0501 24.4483 15.9664 24.4202 15.8836 24.3894C15.8016 24.3586 15.7205 24.3251 15.6403 24.2906C15.561 24.2562 15.4826 24.2191 15.4059 24.1801C15.3292 24.142 15.2543 24.1013 15.182 24.0587C15.1089 24.0161 15.0375 23.9726 14.9679 23.9264C14.8991 23.8802 14.8321 23.833 14.7669 23.7841C14.7017 23.7343 14.6391 23.6835 14.5783 23.6319C14.5175 23.5793 14.4594 23.525 14.4029 23.4706C14.3465 23.4153 14.2928 23.3582 14.2417 23.3002C14.1579 23.206 14.0302 23.3628 14.0275 23.6636Z" fill="#052C65"/>
<path d="M15.3468 17.3667C15.8571 18.5619 16.8089 19.497 17.9299 19.9057C19.051 20.3144 20.3218 20.5228 21.6412 20.019" stroke="#084298" stroke-width="2" stroke-linecap="round"/>
<path d="M8.10505 33.3172C9.1591 32.9013 10.2863 32.6929 11.4866 32.6929C12.6896 32.6929 13.8177 32.9022 14.8735 33.319" stroke="#052C65" stroke-width="8.89571" stroke-linecap="round"/>
<path d="M7.63186 17.3667C7.12158 18.5619 6.17064 19.497 5.04873 19.9057C3.9277 20.3144 2.65685 20.5228 1.33752 20.019" stroke="#084298" stroke-width="2" stroke-linecap="round"/>
<mask id="mask5_44_1501" style="mask-type:luminance" maskUnits="userSpaceOnUse" x="14" y="47" width="52" height="52">
<path d="M14.8634 55.7212L56.3097 47.2127L65.0721 89.8962L23.6258 98.4047L14.8634 55.7212Z" fill="white"/>
</mask>
<g mask="url(#mask5_44_1501)">
<mask id="mask6_44_1501" style="mask-type:luminance" maskUnits="userSpaceOnUse" x="18" y="51" width="44" height="44">
<path d="M60.6909 68.5545C60.7625 68.9035 60.8255 69.2543 60.881 69.6067C60.9354 69.9592 60.982 70.3122 61.021 70.6668C61.059 71.0216 61.0879 71.3759 61.1092 71.7318C61.1305 72.0877 61.1429 72.4442 61.1474 72.8001C61.1518 73.156 61.1472 73.5114 61.1348 73.8673C61.1212 74.2233 61.0997 74.5788 61.07 74.9324C61.0404 75.2871 61.0026 75.6401 60.9558 75.9926C60.9089 76.3451 60.8538 76.6958 60.7896 77.0461C60.7263 77.395 60.6547 77.7422 60.5749 78.0875C60.494 78.4331 60.4059 78.7767 60.3094 79.1174C60.2128 79.4581 60.1078 79.7959 59.9946 80.1319C59.8822 80.4666 59.7616 80.7995 59.6322 81.1284C59.504 81.4571 59.3673 81.7828 59.223 82.1044C59.0778 82.4272 58.9258 82.7446 58.7665 83.0588C58.6061 83.3732 58.4391 83.6832 58.2645 83.9889C58.09 84.2946 57.9086 84.5948 57.7186 84.891C57.5299 85.1881 57.3342 85.4785 57.1308 85.7646C56.9275 86.0508 56.7174 86.3314 56.5007 86.6075C56.2839 86.8826 56.0613 87.1518 55.8312 87.4169C55.6018 87.6806 55.3657 87.9387 55.1237 88.1899C54.882 88.4423 54.6332 88.688 54.3796 88.9265C54.1252 89.1664 53.8659 89.3992 53.6007 89.6251C53.3355 89.851 53.0643 90.07 52.7886 90.283C52.5127 90.4948 52.2319 90.6996 51.9463 90.8972C51.6598 91.0962 51.3693 91.2867 51.074 91.4701C50.7785 91.6524 50.4795 91.8285 50.1753 91.9964C49.8723 92.164 49.5644 92.3245 49.2528 92.4777C48.941 92.6297 48.6264 92.7742 48.3079 92.9103C47.9894 93.0463 47.6671 93.175 47.342 93.2951C47.0168 93.4151 46.69 93.5274 46.3593 93.6312C46.0283 93.7339 45.6957 93.8288 45.3604 93.9162C45.0249 94.0024 44.6879 94.0809 44.349 94.1504C44.01 94.22 43.6693 94.2807 43.327 94.3336C42.9844 94.3854 42.6413 94.4292 42.2967 94.4652C41.9518 94.5001 41.6072 94.5256 41.261 94.5434C40.9148 94.5612 40.5679 94.5699 40.2216 94.5703C39.8752 94.5707 39.5292 94.5618 39.1827 94.5449C38.8359 94.5269 38.4897 94.5007 38.1451 94.466C37.7995 94.4316 37.4553 94.3876 37.1118 94.3364C36.7681 94.2842 36.4261 94.2235 36.0844 94.1535C35.744 94.0844 35.4053 94.0068 35.0682 93.9208C34.7308 93.8336 34.3954 93.7392 34.0626 93.636C33.7299 93.5329 33.3999 93.4211 33.0715 93.3008C32.7444 93.1815 32.419 93.0537 32.0973 92.917C31.7759 92.7814 31.4572 92.6372 31.1426 92.4852C30.8266 92.3322 30.516 92.1724 30.2083 92.0051C29.9004 91.8366 29.5967 91.6615 29.2971 91.4786C28.9974 91.2957 28.7031 91.1059 28.4126 90.9072C28.1213 90.7098 27.8364 90.5054 27.5554 90.2931C27.2745 90.0809 26.999 89.8618 26.7277 89.636C26.4574 89.41 26.1927 89.1782 25.9321 88.9386C25.6728 88.6999 25.4188 88.4544 25.1714 88.2028C24.923 87.9515 24.6809 87.693 24.4458 87.4297C24.2093 87.1655 23.9797 86.8964 23.7568 86.6212C23.5338 86.3461 23.3175 86.065 23.107 85.7793C22.8976 85.4933 22.695 85.2024 22.4993 84.9066C22.3023 84.61 22.1135 84.3093 21.9315 84.0038C21.7496 83.6983 21.5758 83.3888 21.4089 83.0743C21.2422 82.761 21.0824 82.4429 20.9297 82.1209C20.7781 81.7987 20.6338 81.4739 20.4977 81.145C20.3615 80.8162 20.2325 80.4836 20.1119 80.1481C19.9913 79.8126 19.8782 79.4755 19.7734 79.1345C19.6695 78.7932 19.5733 78.4504 19.4844 78.1049C19.3965 77.7592 19.3163 77.412 19.2446 77.0629C19.173 76.7139 19.1099 76.3631 19.0545 76.0108C19.0001 75.6582 18.9535 75.3052 18.9145 74.9506C18.8765 74.5958 18.8476 74.2415 18.8263 73.8856C18.805 73.5297 18.7925 73.1732 18.7881 72.8173C18.7836 72.4614 18.7883 72.106 18.8007 71.7501C18.8142 71.3941 18.8358 71.0387 18.8655 70.685C18.895 70.3303 18.9328 69.9773 18.9797 69.6248C19.0266 69.2723 19.0817 68.9216 19.1459 68.5713C19.2092 68.2224 19.2808 67.8752 19.3606 67.5299C19.4415 67.1843 19.5296 66.8407 19.6261 66.5C19.7226 66.1593 19.8276 65.8215 19.9409 65.4855C20.0533 65.1508 20.1739 64.8179 20.3032 64.489C20.4315 64.1604 20.5682 63.8346 20.7125 63.513C20.8577 63.1902 21.0097 62.8728 21.169 62.5586C21.3294 62.2442 21.4964 61.9343 21.6709 61.6285C21.8455 61.3228 22.0268 61.0226 22.2169 60.7264C22.4056 60.4293 22.6013 60.139 22.8047 59.8528C23.008 59.5666 23.2181 59.286 23.4347 59.0099C23.6516 58.7348 23.8742 58.4656 24.1043 58.2005C24.3336 57.9368 24.5697 57.6787 24.8117 57.4275C25.0535 57.1751 25.3023 56.9294 25.5559 56.6909C25.8103 56.451 26.0696 56.2182 26.3348 55.9923C26.6 55.7664 26.8711 55.5474 27.1469 55.3345C27.4228 55.1226 27.7036 54.9178 27.9892 54.7202C28.2757 54.5212 28.5662 54.3307 28.8614 54.1473C29.1567 53.9639 29.456 53.7889 29.7601 53.6211C30.0632 53.4534 30.371 53.2929 30.6827 53.1398C30.9945 52.9877 31.309 52.8432 31.6276 52.7071C31.9461 52.5711 32.2683 52.4424 32.5935 52.3223C32.9187 52.2023 33.2455 52.09 33.5762 51.9862C33.9072 51.8835 34.2398 51.7886 34.575 51.7013C34.9105 51.615 35.2476 51.5365 35.5865 51.467C35.9254 51.3974 36.2662 51.3367 36.6085 51.2838C36.9511 51.232 37.2941 51.1882 37.6388 51.1522C37.9837 51.1173 38.3283 51.0918 38.6745 51.074C39.0206 51.0562 39.3675 51.0476 39.7139 51.0471C40.0602 51.0467 40.4063 51.0556 40.7528 51.0725C41.0996 51.0905 41.4458 51.1167 41.7903 51.1514C42.136 51.1858 42.48 51.2287 42.8237 51.281C43.1673 51.3332 43.5094 51.3939 43.851 51.4639C44.1914 51.5331 44.5302 51.6106 44.8673 51.6967C45.2046 51.7838 45.5401 51.8782 45.8728 51.9814C46.2056 52.0845 46.5356 52.1963 46.864 52.3166C47.1911 52.4359 47.5165 52.5637 47.8382 52.7004C48.1596 52.836 48.4783 52.9802 48.7929 53.1323C49.1089 53.2852 49.4195 53.445 49.7272 53.6123C50.0351 53.7808 50.3388 53.9559 50.6384 54.1388C50.938 54.3217 51.2323 54.5115 51.5228 54.7102C51.8142 54.9076 52.0991 55.112 52.38 55.3243C52.6609 55.5365 52.9365 55.7556 53.2078 55.9814C53.4781 56.2075 53.7427 56.4392 54.0034 56.6788C54.2627 56.9175 54.5167 57.163 54.7641 57.4146C55.0125 57.6659 55.2545 57.9244 55.4897 58.1877C55.7262 58.4519 55.9557 58.7211 56.1787 58.9962C56.4016 59.2713 56.618 59.5524 56.8285 59.8381C57.0379 60.1241 57.2405 60.415 57.4362 60.7108C57.6332 61.0074 57.822 61.3081 58.0039 61.6136C58.1848 61.9193 58.3597 62.2286 58.5266 62.5431C58.6932 62.8564 58.8531 63.1746 59.0058 63.4965C59.1574 63.8187 59.3017 64.1435 59.4378 64.4724C59.5739 64.8012 59.7029 65.1338 59.8236 65.4693C59.9442 65.8048 60.0572 66.1419 60.1621 66.4829C60.2659 66.8242 60.3622 67.167 60.4511 67.5125C60.5389 67.8582 60.6192 68.2055 60.6909 68.5545Z" fill="white"/>
</mask>
<g mask="url(#mask6_44_1501)">
<path d="M14.8634 55.7212L23.6258 98.4047L65.0721 89.8962L56.3097 47.2127L14.8634 55.7212Z" fill="#DC3545"/>
</g>
</g>
<path d="M36.0697 64.6243C35.1548 64.784 34.2336 64.8664 33.3048 64.8708C32.3751 64.8754 31.4511 64.8022 30.5318 64.6514C29.6124 64.4996 28.7107 64.2734 27.8261 63.97C26.9416 63.6675 26.0858 63.2932 25.2594 62.8468L25.7601 61.8351C26.548 62.2593 27.3639 62.6136 28.2079 62.8983C29.0511 63.183 29.9112 63.3945 30.7882 63.5326C31.6644 63.671 32.5448 63.7337 33.4295 63.7209C34.3142 63.7081 35.191 63.6202 36.06 63.4574L36.344 64.5612C36.3126 64.5686 36.2206 64.5933 36.0697 64.6243Z" fill="#842029"/>
<path d="M30.3423 64.0265C30.2462 64.1132 30.16 64.2075 30.0825 64.3117C30.0059 64.4157 29.9389 64.5255 29.8831 64.6436C29.8262 64.7611 29.7824 64.8826 29.7492 65.0097C29.7166 65.1357 29.6961 65.2651 29.6872 65.3959C29.6791 65.5266 29.6834 65.6576 29.6999 65.7881C29.7163 65.9186 29.7443 66.0458 29.7851 66.1713C29.8257 66.2958 29.8778 66.4161 29.9409 66.5312C30.005 66.6461 30.0779 66.7533 30.1616 66.8535C30.2455 66.9547 30.3376 67.0454 30.4383 67.1275C30.539 67.2097 30.6468 67.2807 30.761 67.3416C30.8753 67.4026 30.9936 67.451 31.1162 67.4889C31.2397 67.5257 31.3653 67.5503 31.492 67.5621C31.6197 67.5738 31.7467 67.5729 31.8739 67.5594C32.0011 67.5459 32.1259 67.5203 32.2479 67.4817C32.3691 67.4432 32.4859 67.393 32.5983 67.3302C32.71 67.2684 32.8147 67.1955 32.9134 67.1122C33.0113 67.0291 33.0996 66.9362 33.1806 66.8352C33.2605 66.7335 33.3305 66.625 33.3898 66.51C33.4489 66.3941 33.4967 66.2737 33.5331 66.1478C33.5694 66.022 33.5939 65.8938 33.6058 65.7633C33.6176 65.6328 33.6171 65.502 33.6045 65.3717C33.5917 65.2404 33.5662 65.1118 33.529 64.9856C33.4918 64.8593 33.4434 64.7383 33.3836 64.6215C33.323 64.505 33.2524 64.3953 33.1719 64.2925C32.222 64.2857 31.2788 64.1971 30.3423 64.0265Z" fill="#842029"/>
<path d="M40.3196 63.7511C41.2236 63.5384 42.1037 63.251 42.96 62.8889C43.8163 62.5269 44.6377 62.0954 45.4232 61.5946C46.2093 61.0927 46.9499 60.5294 47.6434 59.902C48.3381 59.2753 48.9772 58.5941 49.5616 57.8571L48.7028 57.1245C48.1458 57.8247 47.5354 58.4719 46.8718 59.0661C46.2091 59.66 45.5019 60.1932 44.7502 60.6657C43.9994 61.138 43.2149 61.5425 42.3967 61.8793C41.5785 62.2161 40.738 62.4808 39.8751 62.6734L40.0489 63.7999C40.0744 63.7956 40.1687 63.7821 40.3196 63.7511Z" fill="#842029"/>
<path d="M45.3483 60.9457C45.4709 60.9874 45.5872 61.0402 45.6995 61.1054C45.8109 61.1708 45.9157 61.2454 46.0135 61.332C46.1121 61.4175 46.2002 61.5119 46.2809 61.6156C46.3604 61.7186 46.4302 61.8294 46.49 61.9462C46.5489 62.0631 46.5965 62.1853 46.6329 62.3117C46.6692 62.4381 46.6935 62.566 46.7055 62.6974C46.7172 62.8279 46.7168 62.959 46.704 63.0896C46.6904 63.2205 46.6656 63.3478 46.6282 63.4728C46.591 63.5988 46.5421 63.7185 46.4819 63.8337C46.4217 63.9489 46.3505 64.0566 46.2696 64.1576C46.1886 64.2586 46.0989 64.3498 46.0011 64.4329C45.9022 64.5153 45.7964 64.5875 45.6845 64.6483C45.5718 64.7093 45.4547 64.7585 45.3325 64.7962C45.2102 64.8339 45.0855 64.8595 44.9581 64.8721C44.8316 64.8845 44.7044 64.8844 44.5763 64.8709C44.4494 64.8582 44.3245 64.8324 44.2009 64.7947C44.0782 64.7569 43.9604 64.7064 43.8462 64.6454C43.7327 64.5834 43.6255 64.5112 43.5257 64.4289C43.4258 64.3456 43.3344 64.2538 43.2514 64.1525C43.1684 64.0512 43.0954 63.943 43.0331 63.8277C42.9708 63.7124 42.9197 63.592 42.88 63.4672C42.84 63.3416 42.8128 63.2133 42.7972 63.0826C42.7817 62.9519 42.7785 62.8216 42.7874 62.6908C42.7973 62.5597 42.8189 62.4311 42.8523 62.3049C43.7228 61.9245 44.5548 61.4714 45.3483 60.9457Z" fill="#842029"/>
<path d="M32.8852 70.4346L45.5357 67.8376L45.7652 68.9555L33.1147 71.5525L32.8852 70.4346Z" fill="#842029"/>
<mask id="mask7_44_1501" style="mask-type:luminance" maskUnits="userSpaceOnUse" x="45" y="1" width="51" height="50">
<path d="M77.4851 1.68262L45.2949 19.0378L63.3256 50.9668L95.5158 33.6116L77.4851 1.68262Z" fill="white"/>
</mask>
<g mask="url(#mask7_44_1501)">
<path d="M54.3102 35.0023C59.2894 43.8193 70.5315 47.0818 79.4207 42.2892C88.309 37.4971 91.4795 26.4642 86.5004 17.6471C81.5218 8.83089 70.2783 5.56809 61.39 10.3602C52.5008 15.1527 49.3316 26.186 54.3102 35.0023Z" fill="#6610F2"/>
</g>
<mask id="mask8_44_1501" style="mask-type:luminance" maskUnits="userSpaceOnUse" x="45" y="1" width="44" height="37">
<path d="M77.4851 1.68262L45.2949 19.0378L55.8395 37.7102L88.0297 20.3551L77.4851 1.68262Z" fill="white"/>
</mask>
<g mask="url(#mask8_44_1501)">
<path d="M66.7301 19.8165C58.9072 24.0342 54.5829 31.4226 56.0324 37.3413C55.2862 36.4788 54.612 35.5366 54.0335 34.5122C49.2077 25.9666 52.5008 15.1527 61.39 10.3602C70.2783 5.56809 81.3979 8.61146 86.2237 17.1571C86.8022 18.1814 87.2576 19.2416 87.6073 20.3179C83.2557 15.9638 74.5521 15.5993 66.7301 19.8165Z" fill="#7121F3"/>
</g>
<path d="M69.869 19.6205C69.9491 19.7624 70.0385 19.8977 70.1369 20.026C70.2355 20.1549 70.3415 20.2737 70.4548 20.3841C70.5678 20.4939 70.686 20.5926 70.8094 20.6802C70.9327 20.7678 71.0593 20.8423 71.1883 20.9034C71.3172 20.9646 71.4462 21.0122 71.5759 21.0449C71.705 21.0781 71.8325 21.0962 71.9578 21.0996C72.0831 21.1031 72.2033 21.0919 72.3194 21.0656C72.4351 21.0387 72.544 20.9981 72.6462 20.943C72.7483 20.888 72.8421 20.8193 72.9271 20.7379C73.0112 20.6563 73.0855 20.5626 73.1494 20.4572C73.2132 20.3518 73.2649 20.237 73.3057 20.1123C73.3458 19.9879 73.374 19.8557 73.3898 19.7165C73.4056 19.5773 73.408 19.4332 73.3985 19.2842C73.3885 19.1356 73.366 18.9853 73.3312 18.8333C73.2961 18.6808 73.2497 18.5298 73.1907 18.3795C73.1321 18.2299 73.0626 18.0838 72.9824 17.9419C72.9023 17.8001 72.8129 17.6647 72.7146 17.5364C72.616 17.4076 72.51 17.2887 72.3966 17.1783C72.2836 17.0686 72.1654 16.9699 72.0421 16.8823C71.9182 16.795 71.7922 16.7202 71.6632 16.659C71.5342 16.5979 71.4047 16.5506 71.2756 16.5175C71.1459 16.4847 71.019 16.4663 70.8937 16.4628C70.7683 16.4594 70.6476 16.4708 70.5321 16.4968C70.4163 16.5238 70.3069 16.5646 70.2047 16.6197C70.1026 16.6748 70.0094 16.7432 69.9244 16.8245C69.8397 16.9064 69.766 16.9998 69.7021 17.1052C69.6383 17.2106 69.586 17.3257 69.5458 17.4501C69.505 17.5748 69.4775 17.7067 69.4617 17.846C69.4459 17.9852 69.4429 18.1295 69.4529 18.2782C69.463 18.4269 69.4855 18.5772 69.5202 18.7291C69.5554 18.8817 69.6018 19.0326 69.6607 19.1829C69.7194 19.3326 69.7889 19.4786 69.869 19.6205Z" fill="#3D0A91"/>
<path d="M61.7735 23.9853C61.8536 24.1271 61.943 24.2625 62.0413 24.3908C62.14 24.5196 62.2459 24.6385 62.3593 24.7488C62.4723 24.8586 62.5905 24.9573 62.7138 25.0449C62.8377 25.1322 62.9638 25.207 63.0927 25.2682C63.2217 25.3293 63.3512 25.3766 63.4803 25.4097C63.61 25.4425 63.7369 25.4609 63.8623 25.4644C63.9876 25.4678 64.1083 25.4564 64.2238 25.4303C64.3396 25.4034 64.449 25.3625 64.5512 25.3075C64.6534 25.2524 64.7465 25.184 64.8315 25.1027C64.9163 25.0207 64.99 24.9274 65.0538 24.822C65.1176 24.7165 65.1699 24.6015 65.2101 24.4771C65.2509 24.3524 65.2784 24.2204 65.2942 24.0812C65.3101 23.942 65.3131 23.7976 65.303 23.649C65.2929 23.5003 65.2705 23.35 65.2357 23.1981C65.2006 23.0455 65.1541 22.8945 65.0952 22.7443C65.0365 22.5946 64.967 22.4485 64.8869 22.3067C64.8068 22.1648 64.7174 22.0294 64.6191 21.9012C64.5204 21.7723 64.4144 21.6534 64.3011 21.5431C64.1881 21.4333 64.0699 21.3346 63.9466 21.247C63.8232 21.1594 63.6966 21.0849 63.5676 21.0238C63.4387 20.9626 63.3098 20.915 63.1801 20.8822C63.0509 20.8491 62.9234 20.831 62.7981 20.8276C62.6728 20.8241 62.5527 20.8353 62.4366 20.8616C62.3208 20.8885 62.2119 20.9291 62.1098 20.9842C62.0076 21.0392 61.9139 21.1079 61.8288 21.1893C61.7447 21.2709 61.6704 21.3645 61.6066 21.47C61.5427 21.5754 61.491 21.6901 61.4502 21.8149C61.4101 21.9392 61.3819 22.0715 61.3661 22.2107C61.3503 22.3499 61.3479 22.494 61.3574 22.6429C61.3675 22.7916 61.3899 22.9419 61.4247 23.0939C61.4598 23.2464 61.5062 23.3974 61.5652 23.5476C61.6238 23.6973 61.6934 23.8434 61.7735 23.9853Z" fill="#3D0A91"/>
<path d="M73.2816 14.1546C73.4112 14.0847 73.52 13.9739 73.585 13.8301C73.7445 13.4775 73.5812 13.0602 73.2208 12.898C69.6724 11.3061 66.9439 12.7371 66.8289 12.7991C66.4856 12.9842 66.3629 13.4115 66.5555 13.7525C66.7474 14.0925 67.1802 14.2195 67.5241 14.0356C67.6211 13.9848 69.7761 12.8909 72.6434 14.1761C72.857 14.2725 73.0924 14.2566 73.2816 14.1546ZM58.3351 22.2129C58.5248 22.1106 58.663 21.9251 58.694 21.6969C59.1101 18.6361 61.2132 17.4395 61.3031 17.3896C61.6438 17.2013 61.763 16.7745 61.5696 16.4361C61.3759 16.0972 60.9442 15.9719 60.6021 16.1563C60.4871 16.2183 57.7938 17.7104 57.2795 21.4926C57.2272 21.8774 57.502 22.2345 57.8924 22.2907C58.0515 22.3137 58.2049 22.2831 58.3351 22.2129ZM67.9313 29.8336C67.923 29.8026 67.1173 26.7442 69.8197 25.2872C72.5221 23.8302 74.7406 26.1269 74.763 26.1504C74.8699 26.2642 74.8862 26.4306 74.8085 26.564C74.7312 26.6955 74.5688 26.7627 74.4168 26.7268C74.4069 26.7253 73.4834 26.5343 71.2147 27.7575C68.9799 28.9623 68.6292 29.8207 68.6167 29.8538C68.5886 29.9415 68.5279 30.012 68.4502 30.0539C68.3977 30.0822 68.3374 30.0981 68.2744 30.0973C68.1132 30.0936 67.9733 29.9862 67.9313 29.8336Z" fill="#3D0A91"/>
<mask id="mask9_44_1501" style="mask-type:luminance" maskUnits="userSpaceOnUse" x="-9" y="39" width="39" height="41">
<path d="M-8.74317 39.3374H29.7784V79.122H-8.74317V39.3374Z" fill="white"/>
</mask>
<g mask="url(#mask9_44_1501)">
<path d="M29.7704 59.2193C29.7704 59.5446 29.7624 59.87 29.7474 60.1953C29.7313 60.5206 29.7082 60.8449 29.6771 61.1692C29.647 61.4935 29.6079 61.8157 29.5618 62.1379C29.5156 62.4601 29.4614 62.7813 29.4003 63.1004C29.3391 63.4195 29.2698 63.7365 29.1936 64.0525C29.1164 64.3685 29.0321 64.6824 28.9408 64.9933C28.8495 65.3051 28.7502 65.6139 28.6449 65.9205C28.5385 66.2272 28.4252 66.5308 28.3048 66.8312C28.1834 67.1317 28.056 67.4301 27.9216 67.7243C27.7862 68.0186 27.6447 68.3086 27.4962 68.5956C27.3478 68.8826 27.1923 69.1665 27.0308 69.4452C26.8683 69.7249 26.6997 69.9995 26.5242 70.2699C26.3496 70.5414 26.1681 70.8066 25.9805 71.0687C25.7929 71.3298 25.5983 71.5867 25.3986 71.8385C25.199 72.0892 24.9933 72.3358 24.7817 72.5772C24.57 72.8186 24.3523 73.0538 24.1296 73.2848C23.9069 73.5148 23.6782 73.7386 23.4445 73.9572C23.2117 74.1758 22.973 74.3893 22.7292 74.5954C22.4854 74.8016 22.2366 75.0016 21.9838 75.1964C21.731 75.3901 21.4732 75.5776 21.2114 75.7579C20.9486 75.9392 20.6827 76.1133 20.4119 76.2801C20.142 76.4479 19.8682 76.6085 19.5903 76.7618C19.3114 76.9152 19.0305 77.0613 18.7456 77.2001C18.4607 77.34 18.1728 77.4715 17.8809 77.5959C17.59 77.7212 17.2961 77.8383 16.9991 77.9471C16.7022 78.0569 16.4032 78.1595 16.1023 78.2538C15.8003 78.348 15.4964 78.4351 15.1904 78.5138C14.8854 78.5936 14.5775 78.664 14.2685 78.7283C13.9595 78.7915 13.6485 78.8474 13.3376 78.8951C13.0256 78.9427 12.7126 78.9821 12.3986 79.0142C12.0856 79.0463 11.7706 79.0702 11.4566 79.0867C11.1416 79.1023 10.8266 79.1106 10.5116 79.1106C10.1956 79.1106 9.88064 79.1023 9.56665 79.0867C9.25166 79.0702 8.93667 79.0463 8.62368 79.0142C8.30969 78.9821 7.9967 78.9427 7.68572 78.8951C7.37373 78.8474 7.06275 78.7915 6.75378 78.7283C6.4448 78.664 6.13683 78.5936 5.83187 78.5138C5.5259 78.4351 5.22194 78.348 4.92099 78.2538C4.61904 78.1595 4.32009 78.0569 4.02316 77.9471C3.72622 77.8383 3.43229 77.7212 3.14137 77.5959C2.84945 77.4715 2.56154 77.34 2.27664 77.2001C1.99174 77.0613 1.71086 76.9152 1.43198 76.7618C1.1541 76.6085 0.880237 76.4479 0.610385 76.2801C0.33953 76.1133 0.0736907 75.9392 -0.189139 75.7579C-0.450965 75.5776 -0.708779 75.3901 -0.961577 75.1964C-1.21437 75.0016 -1.46316 74.8016 -1.70693 74.5954C-1.9507 74.3893 -2.18945 74.1758 -2.42219 73.9572C-2.65592 73.7386 -2.88465 73.5148 -3.10735 73.2848C-3.33005 73.0538 -3.54774 72.8186 -3.75941 72.5772C-3.97108 72.3358 -4.17672 72.0892 -4.37635 71.8385C-4.57599 71.5867 -4.7706 71.3298 -4.95819 71.0687C-5.14578 70.8066 -5.32736 70.5414 -5.50191 70.2699C-5.67746 69.9995 -5.84599 69.7249 -6.0075 69.4452C-6.17002 69.1665 -6.32551 68.8826 -6.47398 68.5956C-6.62244 68.3086 -6.76389 68.0186 -6.89932 67.7243C-7.03374 67.4301 -7.16114 67.1317 -7.28152 66.8312C-7.40291 66.5308 -7.51627 66.2272 -7.6226 65.9205C-7.72793 65.6139 -7.82725 65.3051 -7.91854 64.9933C-8.00982 64.6824 -8.09409 64.3685 -8.17133 64.0525C-8.24757 63.7365 -8.31679 63.4195 -8.37799 63.1004C-8.43918 62.7813 -8.49335 62.4601 -8.5395 62.1379C-8.58564 61.8157 -8.62476 61.4935 -8.65486 61.1692C-8.68596 60.8449 -8.70903 60.5206 -8.72508 60.1953C-8.74013 59.87 -8.74815 59.5446 -8.74815 59.2193C-8.74815 58.894 -8.74013 58.5687 -8.72508 58.2434C-8.70903 57.918 -8.68596 57.5937 -8.65486 57.2705C-8.62476 56.9462 -8.58564 56.623 -8.5395 56.3007C-8.49335 55.9796 -8.43918 55.6584 -8.37799 55.3393C-8.31679 55.0202 -8.24757 54.7021 -8.17133 54.3861C-8.09409 54.0712 -8.00982 53.7572 -7.91854 53.4454C-7.82725 53.1346 -7.72793 52.8248 -7.6226 52.5191C-7.51627 52.2125 -7.40291 51.9089 -7.28152 51.6074C-7.16114 51.307 -7.03374 51.0096 -6.89932 50.7154C-6.76389 50.4211 -6.62244 50.13 -6.47398 49.843C-6.32551 49.556 -6.17002 49.2732 -6.0075 48.9934C-5.84599 48.7147 -5.67746 48.4391 -5.50191 48.1687C-5.32736 47.8983 -5.14578 47.6321 -4.95819 47.371C-4.7706 47.1089 -4.57599 46.8529 -4.37635 46.6012C-4.17672 46.3494 -3.97108 46.1028 -3.75941 45.8614C-3.54774 45.6211 -3.33005 45.3849 -3.10735 45.1548C-2.88465 44.9248 -2.65592 44.7 -2.42219 44.4814C-2.18945 44.2628 -1.9507 44.0504 -1.70693 43.8442C-1.46316 43.637 -1.21437 43.4371 -0.961577 43.2433C-0.708779 43.0496 -0.450965 42.8621 -0.189139 42.6807C0.0736907 42.5005 0.33953 42.3264 0.610385 42.1586C0.880237 41.9918 1.1541 41.8312 1.43198 41.6778C1.71086 41.5245 1.99174 41.3774 2.27664 41.2386C2.56154 41.0997 2.84945 40.9681 3.14137 40.8428C3.43229 40.7185 3.72622 40.6014 4.02316 40.4916C4.32009 40.3817 4.61904 40.2802 4.92099 40.1859C5.22194 40.0906 5.5259 40.0046 5.83187 39.9248C6.13683 39.8461 6.4448 39.7746 6.75378 39.7114C7.06275 39.6482 7.37373 39.5923 7.68572 39.5446C7.9967 39.4969 8.30969 39.4565 8.62368 39.4244C8.93667 39.3933 9.25166 39.3685 9.56665 39.3529C9.88064 39.3374 10.1956 39.3291 10.5116 39.3291C10.8266 39.3291 11.1416 39.3374 11.4566 39.3529C11.7706 39.3685 12.0856 39.3933 12.3986 39.4244C12.7126 39.4565 13.0256 39.4969 13.3376 39.5446C13.6485 39.5923 13.9595 39.6482 14.2685 39.7114C14.5775 39.7746 14.8854 39.8461 15.1904 39.9248C15.4964 40.0046 15.8003 40.0906 16.1023 40.1859C16.4032 40.2802 16.7022 40.3817 16.9991 40.4916C17.2961 40.6014 17.59 40.7185 17.8809 40.8428C18.1728 40.9681 18.4607 41.0997 18.7456 41.2386C19.0305 41.3774 19.3114 41.5245 19.5903 41.6778C19.8682 41.8312 20.142 41.9918 20.4119 42.1586C20.6827 42.3264 20.9486 42.5005 21.2114 42.6807C21.4732 42.8621 21.731 43.0496 21.9838 43.2433C22.2366 43.4371 22.4854 43.637 22.7292 43.8442C22.973 44.0504 23.2117 44.2628 23.4445 44.4814C23.6782 44.7 23.9069 44.9248 24.1296 45.1548C24.3523 45.3849 24.57 45.6211 24.7817 45.8614C24.9933 46.1028 25.199 46.3494 25.3986 46.6012C25.5983 46.8529 25.7929 47.1089 25.9805 47.371C26.1681 47.6321 26.3496 47.8983 26.5242 48.1687C26.6997 48.4391 26.8683 48.7147 27.0308 48.9934C27.1923 49.2732 27.3478 49.556 27.4962 49.843C27.6447 50.13 27.7862 50.4211 27.9216 50.7154C28.056 51.0096 28.1834 51.307 28.3048 51.6074C28.4252 51.9089 28.5385 52.2125 28.6449 52.5191C28.7502 52.8248 28.8495 53.1346 28.9408 53.4454C29.0321 53.7572 29.1164 54.0712 29.1936 54.3861C29.2698 54.7021 29.3391 55.0202 29.4003 55.3393C29.4614 55.6584 29.5156 55.9796 29.5618 56.3007C29.6079 56.623 29.647 56.9462 29.6771 57.2705C29.7082 57.5937 29.7313 57.918 29.7474 58.2434C29.7624 58.5687 29.7704 58.894 29.7704 59.2193Z" fill="#FD7E14"/>
</g>
<path d="M10.182 62.0477C10.1532 61.9404 10.0536 61.9635 9.98359 61.9397C9.02463 61.6081 8.37884 60.6713 8.44811 59.7025C8.52026 58.6727 9.30316 57.8119 10.322 57.6435C11.6432 57.4229 12.8179 58.2628 13.0091 59.5662C13.1621 60.6043 12.4578 61.6565 11.4116 61.965C11.3401 61.9851 11.2456 61.9568 11.1987 62.0477C10.8617 62.0477 10.5219 62.0477 10.182 62.0477Z" fill="#984C0C"/>
<path d="M7.18465 52.7903C7.17599 53.3448 7.01725 53.8389 6.64348 54.2472C6.0684 54.877 5.18593 54.8829 4.60003 54.2629C3.85899 53.4782 3.85971 52.0936 4.60219 51.3111C5.18954 50.6926 6.06912 50.7 6.64493 51.332C7.01942 51.7403 7.17671 52.2367 7.18465 52.7903Z" fill="#984C0C"/>
<path d="M14.3815 52.7825C14.3836 52.2266 14.5496 51.7333 14.9234 51.3264C15.4927 50.7056 16.3658 50.6959 16.9481 51.2981C17.7021 52.0783 17.7064 53.4838 16.956 54.27C16.3751 54.8781 15.5057 54.8751 14.9291 54.2603C14.5727 53.8817 14.3815 53.3645 14.3815 52.7825Z" fill="#984C0C"/>
<path d="M5.6174 46.6322C4.86842 46.6456 4.14253 46.7655 3.45272 47.0793C3.10349 47.2388 2.78168 47.437 2.5046 47.712C2.31916 47.8968 2.12434 48.0741 1.89055 48.1934C1.76716 48.2567 1.6279 48.323 1.51245 48.1956C1.40566 48.0764 1.39267 47.9162 1.46916 47.7761C2.12866 46.583 3.04504 45.7416 4.41095 45.5464C5.25662 45.4256 6.05755 45.6246 6.83828 45.9488C7.00784 46.0188 7.07495 46.1425 7.07495 46.3117C7.07495 46.4883 6.97754 46.6009 6.81591 46.6634C6.69974 46.7089 6.5814 46.7119 6.45874 46.7007C6.17877 46.6746 5.89737 46.6538 5.6174 46.6322Z" fill="#984C0C"/>
<path d="M15.4241 46.6519C15.1088 46.643 14.7971 46.6832 14.4832 46.7041C14.1188 46.7279 13.9074 46.4947 13.9824 46.1869C14.0084 46.0796 14.0618 46.017 14.16 45.9723C16.2388 45.0318 18.2995 45.4983 19.5377 47.7094C19.6315 47.877 19.6532 48.0529 19.5262 48.1953C19.3956 48.3413 19.2383 48.2482 19.107 48.1684C18.9699 48.0842 18.8306 47.9918 18.7173 47.8756C17.8991 47.0342 16.8781 46.7234 15.7625 46.6534C15.6492 46.6459 15.536 46.6519 15.4241 46.6519Z" fill="#984C0C"/>
<mask id="mask10_44_1501" style="mask-type:luminance" maskUnits="userSpaceOnUse" x="52" y="33" width="47" height="47">
<path d="M52.459 33.2241H98.3606V80.0001H52.459V33.2241Z" fill="white"/>
</mask>
<g mask="url(#mask10_44_1501)">
<path d="M98.3606 56.6121C98.3606 69.5291 88.0854 80.0001 75.4098 80.0001C62.7355 80.0001 52.459 69.5291 52.459 56.6121C52.459 43.6963 62.7355 33.2241 75.4098 33.2241C88.0854 33.2241 98.3606 43.6963 98.3606 56.6121Z" fill="#D63384"/>
</g>
<path d="M71.3662 46.8266C71.3662 47.0632 71.3501 47.2978 71.3179 47.5296C71.2857 47.7623 71.2374 47.9873 71.1739 48.2066C71.1104 48.4248 71.0327 48.6324 70.9408 48.8294C70.8488 49.0264 70.7436 49.2089 70.6261 49.376C70.5086 49.5431 70.3816 49.6927 70.2433 49.8241C70.1059 49.9554 69.9599 50.0665 69.8064 50.1572C69.6529 50.248 69.4956 50.3166 69.3326 50.3629C69.1696 50.4083 69.0057 50.4315 68.8398 50.4315C68.674 50.4315 68.5091 50.4083 68.3461 50.3629C68.1841 50.3166 68.0258 50.248 67.8723 50.1572C67.7188 50.0665 67.5738 49.9554 67.4354 49.8241C67.298 49.6927 67.1701 49.5431 67.0526 49.376C66.9351 49.2089 66.8309 49.0264 66.738 48.8294C66.6461 48.6324 66.5684 48.4248 66.5049 48.2066C66.4414 47.9873 66.393 47.7623 66.3608 47.5296C66.3286 47.2978 66.3125 47.0632 66.3125 46.8266C66.3125 46.59 66.3286 46.3553 66.3608 46.1236C66.393 45.8908 66.4414 45.6658 66.5049 45.4466C66.5684 45.2284 66.6461 45.0208 66.738 44.8238C66.8309 44.6268 66.9351 44.4442 67.0526 44.2772C67.1701 44.1101 67.298 43.9604 67.4354 43.8291C67.5738 43.6978 67.7188 43.5867 67.8723 43.4959C68.0258 43.4052 68.1841 43.3366 68.3461 43.2902C68.5091 43.2449 68.674 43.2217 68.8398 43.2217C69.0057 43.2217 69.1696 43.2449 69.3326 43.2902C69.4956 43.3366 69.6529 43.4052 69.8064 43.4959C69.9599 43.5867 70.1059 43.6978 70.2433 43.8291C70.3816 43.9604 70.5086 44.1101 70.6261 44.2772C70.7436 44.4442 70.8488 44.6268 70.9408 44.8238C71.0327 45.0208 71.1104 45.2284 71.1739 45.4466C71.2374 45.6658 71.2857 45.8908 71.3179 46.1236C71.3501 46.3553 71.3662 46.59 71.3662 46.8266Z" fill="#801F4F"/>
<path d="M84.5072 46.8266C84.5072 47.0632 84.491 47.2978 84.4588 47.5296C84.4266 47.7623 84.3783 47.9873 84.3148 48.2066C84.2513 48.4248 84.1736 48.6324 84.0817 48.8294C83.9888 49.0264 83.8846 49.2089 83.767 49.376C83.6495 49.5431 83.5216 49.6927 83.3842 49.8241C83.2458 49.9554 83.1009 50.0665 82.9473 50.1572C82.7938 50.248 82.6356 50.3166 82.4735 50.3629C82.3105 50.4083 82.1456 50.4315 81.9798 50.4315C81.814 50.4315 81.65 50.4083 81.487 50.3629C81.324 50.3166 81.1667 50.248 81.0132 50.1572C80.8597 50.0665 80.7138 49.9554 80.5764 49.8241C80.438 49.6927 80.311 49.5431 80.1935 49.376C80.076 49.2089 79.9708 49.0264 79.8789 48.8294C79.787 48.6324 79.7093 48.4248 79.6458 48.2066C79.5823 47.9873 79.534 47.7623 79.5017 47.5296C79.4695 47.2978 79.4534 47.0632 79.4534 46.8266C79.4534 46.59 79.4695 46.3553 79.5017 46.1236C79.534 45.8908 79.5823 45.6658 79.6458 45.4466C79.7093 45.2284 79.787 45.0208 79.8789 44.8238C79.9708 44.6268 80.076 44.4442 80.1935 44.2772C80.311 44.1101 80.438 43.9604 80.5764 43.8291C80.7138 43.6978 80.8597 43.5867 81.0132 43.4959C81.1667 43.4052 81.324 43.3366 81.487 43.2902C81.65 43.2449 81.814 43.2217 81.9798 43.2217C82.1456 43.2217 82.3105 43.2449 82.4735 43.2902C82.6356 43.3366 82.7938 43.4052 82.9473 43.4959C83.1009 43.5867 83.2458 43.6978 83.3842 43.8291C83.5216 43.9604 83.6495 44.1101 83.767 44.2772C83.8846 44.4442 83.9888 44.6268 84.0817 44.8238C84.1736 45.0208 84.2513 45.2284 84.3148 45.4466C84.3783 45.6658 84.4266 45.8908 84.4588 46.1236C84.491 46.3553 84.5072 46.59 84.5072 46.8266Z" fill="#801F4F"/>
<path d="M82.4858 56.6121H68.3338C67.7766 56.6121 67.3236 56.1524 67.3236 55.5826C67.3236 55.0129 67.7766 54.5522 68.3338 54.5522H82.4858C83.0449 54.5522 83.496 55.0129 83.496 55.5826C83.496 56.1524 83.0449 56.6121 82.4858 56.6121Z" fill="#801F4F"/>
</g>
</svg>
