<svg width="126" height="25" viewBox="0 0 126 25" fill="none" xmlns="http://www.w3.org/2000/svg">
<path d="M24.7356 24.8446H18.6139C18.2876 24.8446 17.9458 24.5805 17.9302 24.161C17.9302 23.959 18.0701 23.8658 18.272 23.757C18.443 23.6793 18.6139 23.555 18.8003 23.353C19.1421 22.9957 19.3131 22.2654 19.3131 21.1623C19.3131 19.1579 18.9868 15.8485 18.3342 11.2494C18.1944 10.2705 18.1011 9.55578 18.0234 9.10522L11.7308 24.0678L5.48472 9.21398C5.40702 9.66454 5.31381 10.3327 5.18951 11.2494C4.53692 15.8485 4.21063 19.1579 4.21063 21.1623C4.21063 22.2654 4.38157 22.9957 4.72337 23.353C4.90982 23.555 5.08073 23.6793 5.25166 23.757C5.45363 23.8658 5.60902 23.9435 5.60902 24.1765C5.59347 24.565 5.26721 24.8446 4.90982 24.8446H0.54381C0.233062 24.8446 0 24.6116 0 24.3164C0.0155374 23.959 0.201987 23.8658 0.450586 23.7415C0.776874 23.6172 1.22746 23.3375 1.61589 22.5451C2.09755 21.4575 2.56368 18.987 3.0298 15.1182L3.51147 10.8609C3.71343 9.13628 3.82222 7.70684 3.82222 6.55705C3.82222 5.79574 3.76007 5.23639 3.63577 4.84795C3.46483 4.4595 3.23178 4.17984 2.92104 4.00894C2.71905 3.90015 2.56368 3.7914 2.54814 3.48065C2.54814 3.1699 2.92104 2.9213 3.24733 2.9213C3.91543 2.73485 4.50587 2.64164 4.98752 2.64164C6.46357 2.64164 7.19382 3.48065 7.7532 5.03439L12.6941 16.7652C15.0558 11.4514 16.5474 7.98653 17.1533 6.38614C18.0856 3.88464 18.9712 2.70376 20.6027 2.70376C21.0222 2.70376 21.4883 2.78146 22.0166 2.9213C22.4982 3.03006 22.7313 3.21651 22.7313 3.44956C22.6381 4.14875 22.1098 3.76034 21.6437 4.84795C21.5038 5.23639 21.4417 5.81125 21.4417 6.60369C21.4417 7.73793 21.5505 9.16734 21.7524 10.8609L21.8612 11.8864C22.4361 17.4954 23.042 21.038 23.648 22.5451C24.0675 23.3375 24.487 23.6172 24.8133 23.7415C25.0619 23.8658 25.2639 23.9745 25.2794 24.3008C25.2794 24.596 25.0619 24.8446 24.7356 24.8446ZM32.3807 24.8446H26.5541C26.2278 24.8446 25.9326 24.5494 25.9326 24.2231C25.9326 23.959 26.088 23.8658 26.3211 23.757C26.6784 23.5861 27.1445 23.2598 27.4553 22.1877C27.6107 21.6595 27.6884 20.8515 27.6884 19.7794L27.7039 18.8006C27.7194 18.2568 27.735 17.6508 27.735 16.9982C27.735 15.3823 27.6262 13.6111 27.1601 12.3059C26.927 11.6689 26.5697 11.2183 26.1035 10.9542C25.8394 10.8299 25.3577 10.8299 25.3267 10.3482C25.3267 10.1151 25.451 9.91314 25.7462 9.91314C27.2222 9.74223 28.2322 9.58687 28.7449 9.43148C29.1333 9.30718 29.5529 9.24503 30.0034 9.24503C30.7492 9.24503 31.5106 9.75778 31.5106 10.6123C31.1998 12.8031 31.1377 14.9473 31.1377 17.107L31.1532 19.7794C31.1532 21.9391 31.5416 22.8869 31.9767 23.3064C32.1942 23.524 32.3962 23.6793 32.5982 23.757C32.8312 23.8658 33.0022 23.959 33.0022 24.2231C33.0022 24.5494 32.738 24.8446 32.3807 24.8446ZM29.1644 7.59808C28.5585 7.59808 28.0302 7.38054 27.5951 6.94549C27.1601 6.51044 26.9426 5.98219 26.9426 5.37623C26.9426 4.77025 27.1601 4.24199 27.5951 3.80694C28.0302 3.3719 28.5585 3.15436 29.1644 3.15436C29.7704 3.15436 30.2987 3.3719 30.7337 3.80694C31.1687 4.24199 31.3863 4.77025 31.3863 5.37623C31.3863 5.98219 31.1687 6.51044 30.7337 6.94549C30.2987 7.38054 29.7704 7.59808 29.1644 7.59808ZM49.5968 24.8446H43.7703C43.4438 24.8446 43.1488 24.5494 43.1488 24.2231C43.1488 23.959 43.3043 23.8658 43.5373 23.757C43.708 23.6793 43.9102 23.524 44.1276 23.322C44.6404 22.7937 44.9046 21.6128 44.9046 19.7794V15.6309C44.889 14.6521 44.7491 13.8131 44.4694 13.1139C44.0809 12.135 43.3974 11.6378 42.4186 11.6378H42.3407C41.5329 11.7155 40.8647 12.1195 40.3519 12.8653C39.8391 13.6111 39.451 14.4501 39.2024 15.3823C38.9538 16.3301 38.8295 17.0604 38.8295 17.6042V19.7794C38.8295 21.9391 39.2176 22.8869 39.6528 23.3064C39.8703 23.524 40.0725 23.6793 40.2588 23.757C40.5074 23.8658 40.6628 23.959 40.6628 24.2231C40.6628 24.5494 40.3986 24.8446 40.0413 24.8446H34.2304C33.9039 24.8446 33.6089 24.5494 33.6089 24.2231C33.6089 23.959 33.764 23.8658 33.997 23.757C34.1681 23.6793 34.3699 23.524 34.5877 23.322C35.1005 22.7937 35.3643 21.6128 35.3643 19.7794V15.6309C35.3335 14.3879 35.1625 13.3314 34.8519 12.4458C34.541 11.5601 34.0594 11.0318 33.3911 10.8454C33.0805 10.7677 33.0028 10.6589 32.9872 10.3016C32.9872 10.1151 33.0805 9.92868 33.2824 9.91314C34.7584 9.75778 35.784 9.60242 36.3587 9.43148C36.7939 9.30718 37.2288 9.24503 37.6796 9.24503C38.4254 9.24503 38.8139 9.69563 38.8295 10.6123V12.2593C40.0725 10.4103 41.937 9.24503 44.0345 9.24503C46.0233 9.24503 47.1264 10.1773 47.7012 11.4824C48.2607 12.7876 48.3694 14.3724 48.3694 15.6309V19.7794C48.3694 21.9391 48.7579 22.8869 49.1927 23.3064C49.4102 23.524 49.6124 23.6793 49.8142 23.757C50.0473 23.8658 50.2183 23.959 50.2183 24.2231C50.2183 24.5494 49.9541 24.8446 49.5968 24.8446ZM61.5302 25C60.7844 25 60.023 24.4873 60.023 23.6327L60.0386 23.524C59.2305 24.5028 58.143 25 56.7601 25C55.5638 25 54.4607 24.6427 53.4663 23.9279C52.4564 23.2287 51.6638 22.281 51.0735 21.0846C50.4831 19.8882 50.1878 18.583 50.1878 17.1381C50.1878 15.6931 50.4831 14.3724 51.0735 13.176C51.6638 11.9796 52.4564 11.0318 53.4663 10.3327C54.4607 9.63348 55.5638 9.27613 56.7601 9.27613C58.4227 9.27613 59.6813 9.99083 60.5202 11.4047L60.4891 10.1462C60.4891 8.57693 60.3804 7.19409 60.1629 6.02879C59.9455 4.86349 59.4171 4.13324 58.5626 3.85355C58.3604 3.7448 58.2205 3.5428 58.2205 3.35635C58.2205 3.18545 58.3296 3.06115 58.5315 2.98345C60.023 2.82806 61.0486 2.6727 61.6234 2.5018C62.043 2.36195 62.4779 2.2998 62.9287 2.2998C63.6745 2.2998 64.4355 2.81255 64.4355 3.6671C64.1405 5.81125 63.9851 8.59248 63.9851 12.0262C63.9851 13.5645 64.0006 15.0871 64.0318 16.5943L64.0782 19.7483C64.0938 20.6651 64.2025 21.4885 64.3891 22.2188C64.6221 23.0734 65.0418 23.6172 65.6785 23.8192C65.9427 23.9279 66.1913 24.0212 66.1913 24.3941C66.1913 24.6582 66.0514 24.8136 65.772 24.8291C64.5598 24.8291 63.5034 24.8602 62.6178 24.9379C62.2604 24.9845 61.9031 25 61.5302 25ZM57.2109 23.6483C58.3604 23.6483 59.1997 22.8092 59.7277 21.1312C60.1162 19.8882 60.3336 18.5364 60.3492 17.0915C60.3184 13.5023 59.0598 10.6279 57.2109 10.6279C56.2941 10.6279 55.5015 11.2649 54.8645 12.5234C54.2121 13.7975 53.8856 15.3357 53.8856 17.1381C53.8856 19.5464 54.5227 21.5973 55.5327 22.7626C56.0455 23.353 56.6046 23.6483 57.2109 23.6483ZM92.4974 24.8446H86.3911C86.065 24.8446 85.7696 24.565 85.7696 24.2387C85.7696 23.9435 85.9251 23.8658 86.1581 23.7415C86.4846 23.6172 86.8731 23.3375 87.1837 22.5451C87.5098 21.5041 87.6653 19.1113 87.6653 15.3513V14.6521H78.5758C78.5914 18.6141 78.7625 21.1933 79.0886 22.3742C79.4151 23.3064 79.8656 23.6172 80.2229 23.757C80.4715 23.8658 80.6425 23.9745 80.6425 24.2387C80.6425 24.565 80.3783 24.8446 80.021 24.8446H73.8992C73.573 24.8446 73.2777 24.565 73.2777 24.2387C73.2777 23.9435 73.4332 23.8658 73.6662 23.7415C73.9923 23.6172 74.3808 23.3375 74.6917 22.5451C75.0179 21.5041 75.1733 19.0025 75.1733 15.0561C75.1733 13.8131 75.1733 12.7254 75.1578 11.7932L75.1422 10.8609C75.111 7.69129 74.8936 5.68695 74.4895 4.84795C74.2877 4.4595 73.9923 4.17984 73.635 4.00894C73.402 3.90015 73.2465 3.82246 73.2465 3.52725C73.2465 3.20096 73.5419 2.9213 73.868 2.9213H79.9587C80.316 2.9213 80.5802 3.20096 80.5802 3.52725C80.5802 3.7914 80.4095 3.90015 80.1761 4.02445C79.788 4.19536 79.4771 4.47505 79.2597 4.87904C79.0266 5.34514 78.8556 6.10649 78.7625 7.17855C78.6693 8.25064 78.607 9.86653 78.5914 11.9952L78.5758 13.1139H87.6497L87.6189 10.8609C87.6033 7.67574 87.3855 5.67144 86.9818 4.84795C86.7796 4.4595 86.4846 4.17984 86.1273 4.00894C85.8939 3.90015 85.7388 3.82246 85.7388 3.52725C85.7388 3.20096 86.0338 2.9213 86.3603 2.9213H92.451C92.8083 2.9213 93.0725 3.20096 93.0725 3.52725C93.0725 3.7914 92.9014 3.90015 92.6684 4.02445C92.2799 4.19536 91.9694 4.47505 91.7516 4.87904C91.3323 5.7025 91.1145 7.70684 91.0837 10.892L91.0681 14.0617C91.0681 18.3966 91.2388 21.1623 91.5809 22.3742C91.907 23.3064 92.3575 23.6172 92.7151 23.757C92.9482 23.8658 93.1189 23.9745 93.1189 24.2387C93.1189 24.565 92.8547 24.8446 92.4974 24.8446ZM106.792 25C106.047 25 105.285 24.4873 105.285 23.6327C105.348 23.2443 105.394 22.8558 105.425 22.4674C104.198 24.0056 102.52 24.9845 100.655 24.9845C98.6666 24.9379 97.5635 24.0056 97.004 22.6539C96.4292 21.3021 96.3205 19.7017 96.3205 18.4432L96.3357 16.9205C96.3357 15.4445 96.2582 13.6577 95.7922 12.337C95.5591 11.6844 95.1862 11.2183 94.7046 10.9542C94.456 10.8454 93.9277 10.8454 93.9277 10.3482C93.9277 10.1151 94.0519 9.91314 94.347 9.91314C95.8233 9.74223 96.8329 9.58687 97.3457 9.43148C97.7342 9.30718 98.1538 9.24503 98.6043 9.24503C99.3501 9.24503 100.111 9.75778 100.111 10.6123C99.8161 12.6788 99.7853 14.5589 99.7853 16.5321V18.4432C99.8009 19.4376 99.9404 20.3077 100.22 21.038C100.609 22.0634 101.292 22.5762 102.271 22.5762C103.064 22.5606 103.732 22.1877 104.276 21.4419C104.804 20.7427 105.208 19.8571 105.472 18.785C105.736 17.7129 105.876 16.6409 105.876 15.5688C105.876 14.4967 105.736 13.5489 105.472 12.6944C105.208 11.8398 104.788 11.2649 104.245 10.9542C103.996 10.8454 103.468 10.8454 103.468 10.3482C103.468 10.053 103.607 9.91314 103.887 9.91314C105.363 9.74223 106.358 9.58687 106.886 9.43148C107.274 9.30718 107.694 9.24503 108.144 9.24503C108.875 9.24503 109.651 9.75778 109.651 10.6123C109.341 12.8031 109.31 14.8075 109.31 16.905C109.31 17.946 109.278 18.8782 109.465 20.4475C109.543 21.2399 109.714 21.9547 109.962 22.6072C110.211 23.2754 110.568 23.6638 111.034 23.8036C111.298 23.8658 111.423 24.0988 111.423 24.3319C111.423 24.5805 111.267 24.8291 111.019 24.8446L110.071 24.8291C109.061 24.8291 108.331 24.8602 107.88 24.9379C107.523 24.9845 107.165 25 106.792 25ZM117.56 16.9672H117.7C118.415 16.9672 119.083 16.7341 119.705 16.268C120.326 15.8019 120.823 15.227 121.212 14.5589C121.585 13.8907 121.771 13.2382 121.771 12.6167C121.771 11.9641 121.554 11.4514 121.103 11.0785C120.715 10.7522 120.124 10.5968 119.332 10.5968H119.239C118.353 10.5968 117.514 11.0008 116.722 11.8243C115.929 12.6477 115.401 13.8752 115.137 15.5377C115.929 16.47 116.737 16.9516 117.56 16.9672ZM118.555 24.9534C113.894 24.9534 111.408 21.0069 111.408 17.1225C111.408 13.2226 113.878 9.32273 119.208 9.32273H119.425C121.352 9.40042 122.75 9.92868 123.62 10.8765C124.49 11.8243 124.941 12.9274 124.956 14.186V14.3724C124.956 16.3612 123.791 17.7751 122.16 18.5054C121.336 18.8782 120.482 19.0647 119.596 19.0647C117.794 19.0647 116.022 18.2723 115.074 16.5943V16.8895C115.074 19.2045 116.178 20.8049 117.732 21.5973C118.493 22.0013 119.285 22.2033 120.109 22.2033C121.134 22.2033 122.066 21.877 122.89 21.2399C123.713 20.6029 124.211 19.624 124.382 18.3034C124.397 18.0082 124.692 17.8683 125.003 17.8683C125.329 17.8683 125.671 18.0237 125.687 18.3189C125.298 20.8515 123.915 22.9025 121.88 24.0678C120.87 24.6582 119.751 24.9534 118.555 24.9534Z" fill="white"/>
<path d="M28.9009 7.40724C28.2063 7.40724 27.5931 7.25718 27.0614 6.95704C26.5297 6.64831 26.1095 6.22811 25.8008 5.69641C25.5007 5.15615 25.3506 4.5387 25.3506 3.84408C25.3506 3.14088 25.5007 2.52346 25.8008 1.99175C26.1095 1.4515 26.5297 1.0313 27.0614 0.731157C27.5931 0.42243 28.2063 0.268066 28.9009 0.268066C29.5869 0.268066 30.1958 0.42243 30.7275 0.731157C31.2592 1.0313 31.6751 1.4515 31.9752 1.99175C32.2839 2.52346 32.4383 3.14088 32.4383 3.84408C32.4383 4.5387 32.2883 5.15615 31.9881 5.69641C31.6879 6.22811 31.272 6.64831 30.7403 6.95704C30.2087 7.25718 29.5955 7.40724 28.9009 7.40724ZM28.9009 6.24956C29.3468 6.24956 29.7413 6.14664 30.0843 5.94083C30.4273 5.73499 30.6932 5.45202 30.8818 5.09185C31.0791 4.73165 31.1777 4.31576 31.1777 3.84408C31.1777 3.37244 31.0791 2.95652 30.8818 2.59635C30.6932 2.22759 30.4273 1.94031 30.0843 1.7345C29.7413 1.52866 29.3468 1.42578 28.9009 1.42578C28.455 1.42578 28.0605 1.52866 27.7174 1.7345C27.3744 1.94031 27.1043 2.22759 26.907 2.59635C26.7098 2.95652 26.6112 3.37244 26.6112 3.84408C26.6112 4.31576 26.7098 4.73165 26.907 5.09185C27.1043 5.45202 27.3744 5.73499 27.7174 5.94083C28.0605 6.14664 28.455 6.24956 28.9009 6.24956Z" fill="#FFC107"/>
<path fill-rule="evenodd" clip-rule="evenodd" d="M27.0613 6.95696C27.593 7.2571 28.2062 7.40716 28.9008 7.40716C29.5954 7.40716 30.2086 7.2571 30.7403 6.95696C31.272 6.64824 31.6879 6.22804 31.988 5.69633C32.2882 5.15608 32.4382 4.53862 32.4382 3.844C32.4382 3.1408 32.2839 2.52338 31.9751 1.99168C31.675 1.45142 31.2591 1.03122 30.7274 0.73108C30.1957 0.422354 29.5868 0.26799 28.9008 0.26799C28.2062 0.26799 27.593 0.422354 27.0613 0.73108C26.5297 1.03122 26.1094 1.45142 25.8007 1.99168C25.5006 2.52338 25.3505 3.1408 25.3505 3.844C25.3505 4.53862 25.5006 5.15608 25.8007 5.69633C26.1094 6.22804 26.5297 6.64824 27.0613 6.95696ZM26.9282 0.498524C27.5055 0.163644 28.1657 0 28.9008 0C29.6279 0 30.2837 0.16391 30.8604 0.498425C31.4344 0.82273 31.8847 1.2779 32.2082 1.85932C32.543 2.43697 32.7062 3.10139 32.7062 3.844C32.7062 4.57843 32.5472 5.24166 32.2223 5.8265L32.2214 5.82809C31.8976 6.40159 31.4475 6.8562 30.8748 7.18869L30.872 7.19035C30.2948 7.51614 29.6351 7.67515 28.9008 7.67515C28.1665 7.67515 27.5068 7.51615 26.9296 7.19031L26.9268 7.18872C26.3548 6.85659 25.9011 6.40289 25.569 5.83091L25.5664 5.8265C25.2415 5.24166 25.0825 4.57843 25.0825 3.844C25.0825 3.10172 25.2413 2.43756 25.5674 1.85995L25.568 1.85873C25.9 1.27783 26.3542 0.82283 26.9282 0.498524ZM30.0842 5.94076C29.7412 6.14656 29.3467 6.24948 28.9008 6.24948C28.4549 6.24948 28.0604 6.14656 27.7174 5.94076C27.3743 5.73492 27.1042 5.45194 26.907 5.09177C26.7098 4.73157 26.6111 4.31568 26.6111 3.844C26.6111 3.37236 26.7098 2.95644 26.907 2.59627C27.1042 2.22751 27.3743 1.94023 27.7174 1.73443C28.0604 1.52859 28.4549 1.4257 28.9008 1.4257C29.3467 1.4257 29.7412 1.52859 30.0842 1.73443C30.4273 1.94023 30.6931 2.22751 30.8818 2.59627C31.079 2.95644 31.1776 3.37236 31.1776 3.844C31.1776 4.31568 31.079 4.73157 30.8818 5.09177C30.6931 5.45194 30.4273 5.73492 30.0842 5.94076ZM30.6467 4.96303C30.8193 4.64784 30.9096 4.27743 30.9096 3.844C30.9096 3.41058 30.8193 3.04017 30.6467 2.72498L30.6431 2.71838C30.4764 2.39258 30.2448 2.14329 29.9463 1.9642C29.6496 1.78617 29.3039 1.69369 28.9008 1.69369C28.4977 1.69369 28.152 1.78617 27.8553 1.9642C27.5557 2.14395 27.3188 2.39461 27.1433 2.72266L27.142 2.72498C26.9694 3.04017 26.8791 3.41058 26.8791 3.844C26.8791 4.27743 26.9694 4.64784 27.142 4.96303C27.3171 5.28266 27.5541 5.53027 27.8553 5.71095C28.152 5.88898 28.4977 5.98149 28.9008 5.98149C29.3039 5.98149 29.6496 5.88898 29.9463 5.71095C30.2464 5.5309 30.4782 5.28472 30.6444 4.96741L30.6467 4.96303Z" fill="#FFC107"/>
<path d="M28.8949 6.47959C30.354 6.47959 31.5368 5.29677 31.5368 3.83769C31.5368 2.37862 30.354 1.1958 28.8949 1.1958C27.4359 1.1958 26.2531 2.37862 26.2531 3.83769C26.2531 5.29677 27.4359 6.47959 28.8949 6.47959Z" fill="#FFC107"/>
<path d="M28.1031 1.7583C28.1031 1.79522 28.1006 1.83185 28.0954 1.86801C28.0903 1.90431 28.0826 1.93941 28.0725 1.97362C28.0625 2.00769 28.0501 2.04008 28.0355 2.07084C28.0209 2.10156 28.0041 2.13004 27.9855 2.15612C27.9668 2.18218 27.9466 2.20554 27.9246 2.22603C27.9027 2.24651 27.8795 2.26385 27.8551 2.278C27.8307 2.29219 27.8057 2.30286 27.7798 2.31009C27.7539 2.31718 27.7278 2.32079 27.7014 2.32079C27.675 2.32079 27.6488 2.31718 27.6229 2.31009C27.5971 2.30286 27.572 2.29219 27.5476 2.278C27.5232 2.26385 27.5001 2.24651 27.4781 2.22603C27.4562 2.20554 27.4359 2.18218 27.4172 2.15612C27.3985 2.13004 27.382 2.10156 27.3672 2.07084C27.3526 2.04008 27.3402 2.00769 27.3301 1.97362C27.32 1.93941 27.3124 1.90431 27.3072 1.86801C27.3021 1.83185 27.2996 1.79522 27.2996 1.7583C27.2996 1.72137 27.3021 1.68478 27.3072 1.64862C27.3124 1.61229 27.32 1.57718 27.3301 1.54298C27.3402 1.50894 27.3526 1.47652 27.3672 1.44579C27.382 1.41507 27.3985 1.38656 27.4172 1.36051C27.4359 1.33442 27.4562 1.31108 27.4781 1.2906C27.5001 1.27008 27.5232 1.25278 27.5476 1.23859C27.572 1.22444 27.5971 1.21373 27.6229 1.20651C27.6488 1.19941 27.675 1.1958 27.7014 1.1958C27.7278 1.1958 27.7539 1.19941 27.7798 1.20651C27.8057 1.21373 27.8307 1.22444 27.8551 1.23859C27.8795 1.25278 27.9027 1.27008 27.9246 1.2906C27.9466 1.31108 27.9668 1.33442 27.9855 1.36051C28.0041 1.38656 28.0209 1.41507 28.0355 1.44579C28.0501 1.47652 28.0625 1.50894 28.0725 1.54298C28.0826 1.57718 28.0903 1.61229 28.0954 1.64862C28.1006 1.68478 28.1031 1.72137 28.1031 1.7583Z" fill="#FFC107"/>
<path d="M30.4897 1.75809C30.4897 1.79498 30.487 1.83134 30.4817 1.86737C30.4762 1.9034 30.4683 1.9384 30.4576 1.97238C30.4471 2.00636 30.4341 2.03861 30.4188 2.0693C30.4034 2.09986 30.3861 2.12817 30.3665 2.15406C30.347 2.18014 30.3257 2.20331 30.3027 2.22373C30.2799 2.24415 30.2555 2.26148 30.2301 2.27554C30.2045 2.28963 30.1783 2.30027 30.1512 2.30746C30.1241 2.31449 30.0968 2.3181 30.0692 2.3181C30.0416 2.3181 30.0141 2.31449 29.987 2.30746C29.9601 2.30027 29.9336 2.28963 29.9083 2.27554C29.8827 2.26148 29.8585 2.24415 29.8355 2.22373C29.8125 2.20331 29.7912 2.18014 29.7717 2.15406C29.7523 2.12817 29.7348 2.09986 29.7195 2.0693C29.7041 2.03861 29.6912 2.00636 29.6806 1.97238C29.6701 1.9384 29.6621 1.9034 29.6567 1.86737C29.6512 1.83134 29.6487 1.79498 29.6487 1.75809C29.6487 1.72136 29.6512 1.685 29.6567 1.64897C29.6621 1.61277 29.6701 1.57777 29.6806 1.54379C29.6912 1.50982 29.7041 1.47757 29.7195 1.44704C29.7348 1.41648 29.7523 1.38817 29.7717 1.36212C29.7912 1.3362 29.8125 1.31303 29.8355 1.29261C29.8585 1.27219 29.8827 1.25486 29.9083 1.2408C29.9336 1.22675 29.9601 1.21611 29.987 1.20888C30.0141 1.20169 30.0416 1.19824 30.0692 1.19824C30.0968 1.19824 30.1241 1.20169 30.1512 1.20888C30.1783 1.21611 30.2045 1.22675 30.2301 1.2408C30.2555 1.25486 30.2799 1.27219 30.3027 1.29261C30.3257 1.31303 30.347 1.3362 30.3665 1.36212C30.3861 1.38817 30.4034 1.41648 30.4188 1.44704C30.4341 1.47757 30.4471 1.50982 30.4576 1.54379C30.4683 1.57777 30.4762 1.61277 30.4817 1.64897C30.487 1.685 30.4897 1.72136 30.4897 1.75809Z" fill="#FFC107"/>
<path d="M27.4536 3.62158C27.7386 4.09906 28.278 4.41491 28.8864 4.41508C29.4948 4.41491 30.0342 4.09906 30.3192 3.62158" stroke="#FFC107" stroke-linecap="round"/>
</svg>
